<svg width="24" height="24" viewBox="0 0 24 24" fill="none" xmlns="http://www.w3.org/2000/svg">
<path d="M10.3648 11.9833L14.6148 16.2333C14.7758 16.3944 14.8536 16.5889 14.8481 16.8168C14.8426 17.0444 14.7593 17.2388 14.5981 17.4C14.4369 17.5612 14.2397 17.6418 14.0063 17.6418C13.773 17.6418 13.5758 17.5612 13.4148 17.4L8.58134 12.5668C8.49251 12.4778 8.43001 12.3861 8.39384 12.2918C8.35784 12.1973 8.33984 12.0944 8.33984 11.9833C8.33984 11.8723 8.35784 11.7695 8.39384 11.675C8.43001 11.5805 8.49251 11.4888 8.58134 11.4L13.4313 6.55001C13.5925 6.38884 13.7898 6.30826 14.0231 6.30826C14.2564 6.30826 14.4537 6.38884 14.6148 6.55001C14.7758 6.71117 14.8563 6.90842 14.8563 7.14176C14.8563 7.37509 14.7758 7.57226 14.6148 7.73326L10.3648 11.9833Z" fill="#3E0D0C"/>
</svg>
