<svg width="20" height="17" viewBox="0 0 20 17" fill="none" xmlns="http://www.w3.org/2000/svg">
<path d="M10.0004 16.75C9.78372 16.75 9.57122 16.7125 9.36289 16.6375C9.15456 16.5625 8.95872 16.4417 8.77539 16.275L7.30039 14.925C5.48372 13.3083 3.87956 11.7292 2.48789 10.1875C1.09622 8.64583 0.400391 6.96667 0.400391 5.15C0.400391 3.683 0.899141 2.45792 1.89664 1.47475C2.89414 0.491583 4.13706 0 5.62539 0C6.47872 0 7.28372 0.179167 8.04039 0.5375C8.79706 0.895833 9.45039 1.40833 10.0004 2.075C10.5837 1.40833 11.2476 0.895833 11.9919 0.5375C12.7362 0.179167 13.5281 0 14.3674 0C15.8561 0 17.1004 0.491583 18.1004 1.47475C19.1004 2.45792 19.6004 3.683 19.6004 5.15C19.6004 6.96667 18.9046 8.64583 17.5129 10.1875C16.1212 11.7292 14.5171 13.3083 12.7004 14.925L11.2254 16.275C11.0421 16.4417 10.8462 16.5625 10.6379 16.6375C10.4296 16.7125 10.2171 16.75 10.0004 16.75ZM9.15039 3.95C8.75039 3.26667 8.25039 2.7375 7.65039 2.3625C7.05039 1.9875 6.37539 1.8 5.62539 1.8C4.64689 1.8 3.83139 2.11667 3.17889 2.75C2.52656 3.38333 2.20039 4.18658 2.20039 5.15975C2.20039 6.00325 2.50039 6.89167 3.10039 7.825C3.70039 8.75833 4.41706 9.67083 5.25039 10.5625C6.08372 11.4542 6.94206 12.2833 7.82539 13.05C8.70872 13.8167 9.43372 14.45 10.0004 14.95C10.5671 14.45 11.2921 13.8167 12.1754 13.05C13.0587 12.2833 13.9171 11.4542 14.7504 10.5625C15.5837 9.67083 16.3004 8.75833 16.9004 7.825C17.5004 6.89167 17.8004 6.00325 17.8004 5.15975C17.8004 4.18658 17.4742 3.38333 16.8219 2.75C16.1694 2.11667 15.3539 1.8 14.3754 1.8C13.6254 1.8 12.9462 1.9875 12.3379 2.3625C11.7296 2.7375 11.2254 3.26667 10.8254 3.95C10.7421 4.11667 10.625 4.2375 10.4741 4.3125C10.3233 4.3875 10.165 4.425 9.99914 4.425C9.83331 4.425 9.67122 4.3875 9.51289 4.3125C9.35456 4.2375 9.23372 4.11667 9.15039 3.95Z" fill="#F3A37E"/>
</svg>
