<svg width="24" height="24" viewBox="0 0 24 24" fill="none" xmlns="http://www.w3.org/2000/svg">
<path d="M21.375 10.5001C21.375 12.7126 20.5978 14.7404 19.1859 16.2076C17.8613 17.5847 16.0622 18.3751 14.25 18.3751C12.8016 18.3751 11.7394 17.9832 10.9791 17.5022L10.095 21.2579C10.0624 21.403 10.0014 21.5401 9.91542 21.6615C9.82947 21.7829 9.72031 21.886 9.59426 21.9649C9.46821 22.0438 9.32777 22.0969 9.18106 22.1212C9.03435 22.1455 8.88428 22.1404 8.73953 22.1063C8.59479 22.0722 8.45823 22.0098 8.33777 21.9226C8.2173 21.8354 8.11531 21.7252 8.03771 21.5984C7.9601 21.4715 7.90842 21.3305 7.88564 21.1836C7.86286 21.0366 7.86944 20.8866 7.905 20.7422L10.905 7.99224C10.9376 7.84715 10.9986 7.70997 11.0846 7.58861C11.1705 7.46726 11.2797 7.36415 11.4057 7.28525C11.5318 7.20635 11.6722 7.15323 11.8189 7.12894C11.9657 7.10466 12.1157 7.10971 12.2605 7.14379C12.4052 7.17787 12.5418 7.24031 12.6622 7.32749C12.7827 7.41468 12.8847 7.52489 12.9623 7.65174C13.0399 7.77859 13.0916 7.91956 13.1144 8.06652C13.1371 8.21347 13.1306 8.36348 13.095 8.50787L11.5528 15.0638C11.88 15.4557 12.6713 16.1251 14.25 16.1251C16.6463 16.1251 19.125 14.0204 19.125 10.5001C19.1245 9.52251 18.8992 8.55817 18.4665 7.6816C18.0338 6.80503 17.4053 6.03971 16.6297 5.4448C15.854 4.84989 14.9519 4.44134 13.9931 4.25072C13.0343 4.06011 12.0445 4.09254 11.1003 4.34551C10.156 4.59848 9.2826 5.06521 8.54753 5.70962C7.81246 6.35403 7.23543 7.15885 6.86105 8.06187C6.48667 8.96489 6.32497 9.9419 6.38846 10.9174C6.45195 11.8929 6.73892 12.8407 7.22719 13.6876C7.365 13.945 7.39728 14.246 7.31721 14.5269C7.23714 14.8077 7.05099 15.0464 6.79812 15.1925C6.54525 15.3386 6.24547 15.3807 5.96216 15.3098C5.67886 15.2389 5.43423 15.0606 5.28 14.8126C4.6187 13.6668 4.22981 12.3843 4.14341 11.0643C4.05702 9.74421 4.27543 8.42196 4.78176 7.19981C5.28808 5.97766 6.06875 4.88835 7.06338 4.01615C8.05801 3.14395 9.23994 2.51223 10.5178 2.16985C11.7956 1.82747 13.135 1.78361 14.4325 2.04167C15.73 2.29972 16.9507 2.85278 18.0002 3.65805C19.0498 4.46332 19.9 5.49922 20.4852 6.68563C21.0704 7.87205 21.3749 9.17717 21.375 10.5001Z" fill="#E74C21"/>
</svg>
