<svg width="14" height="17" viewBox="0 0 14 17" fill="none" xmlns="http://www.w3.org/2000/svg">
<path d="M7 14.4615L3.03075 16.1652C2.42825 16.4229 1.85583 16.3736 1.3135 16.0173C0.771167 15.6609 0.5 15.1597 0.5 14.5135V2.30775C0.5 1.80258 0.675 1.375 1.025 1.025C1.375 0.675 1.80258 0.5 2.30775 0.5H11.6923C12.1974 0.5 12.625 0.675 12.975 1.025C13.325 1.375 13.5 1.80258 13.5 2.30775V14.5135C13.5 15.1597 13.2288 15.6609 12.6865 16.0173C12.1442 16.3736 11.5718 16.4229 10.9693 16.1652L7 14.4615ZM7 12.8L11.5673 14.7673C11.6699 14.8121 11.7677 14.8025 11.8605 14.7385C11.9535 14.6743 12 14.5878 12 14.4788V2.30775C12 2.23075 11.9679 2.16025 11.9038 2.09625C11.8398 2.03208 11.7692 2 11.6923 2H2.30775C2.23075 2 2.16025 2.03208 2.09625 2.09625C2.03208 2.16025 2 2.23075 2 2.30775V14.4788C2 14.5878 2.0465 14.6743 2.1395 14.7385C2.23233 14.8025 2.33008 14.8121 2.43275 14.7673L7 12.8ZM7 2H2H12H7Z" fill="#F3A37E"/>
</svg>
