<svg width="24" height="24" viewBox="0 0 24 24" fill="none" xmlns="http://www.w3.org/2000/svg">
<g clip-path="url(#clip0_2846_4301)">
<path d="M17.101 13.6531C16.0303 13.4297 13.3773 13.5553 11.0244 14.03C8.67146 14.5047 6.02595 17.2888 3.08789 20.5C3.88465 17.233 5.49063 14.6082 7.90582 12.6257C10.321 10.6431 13.0474 9.65183 16.0851 9.65183L13.9936 7.30628C13.7197 6.99913 13.5828 6.6082 13.5828 6.13351C13.5828 5.65881 13.7197 5.26789 13.9936 4.96073C14.2675 4.65358 14.6161 4.5 15.0393 4.5C15.4626 4.5 15.8112 4.65358 16.0851 4.96073L21.4632 10.9921C21.762 11.3272 21.9114 11.7182 21.9114 12.1649C21.9114 12.6117 21.762 13.0026 21.4632 13.3377L16.0851 19.3691C15.8112 19.6763 15.4626 19.8298 15.0393 19.8298C14.6161 19.8298 14.2675 19.6763 13.9936 19.3691C13.7197 19.062 13.5828 18.671 13.5828 18.1963C13.5828 17.7216 13.7197 17.3307 13.9936 17.0236L17.101 13.6531Z" fill="#E74C21"/>
</g>
<defs>
<clipPath id="clip0_2846_4301">
<rect width="24" height="24" fill="white"/>
</clipPath>
</defs>
</svg>
