<svg width="54" height="63" viewBox="0 0 54 63" fill="none" xmlns="http://www.w3.org/2000/svg">
<path d="M52.9981 9.27307C52.8758 9.66466 52.6837 10.0309 52.4309 10.354L12.5715 61.3166C12.295 61.67 11.9514 61.9655 11.5606 62.1861C11.1697 62.4067 10.7392 62.5481 10.2937 62.6022C9.84814 62.6563 9.3963 62.6221 8.964 62.5015C8.53169 62.3809 8.12741 62.1762 7.77425 61.8993L1.65796 57.1218C0.945724 56.561 0.48461 55.7409 0.375496 54.8409C0.266381 53.941 0.518146 53.0344 1.07572 52.3196L40.9297 1.35724C41.4894 0.645204 42.3083 0.183629 43.2073 0.0733751C44.1063 -0.0368709 45.0124 0.213158 45.7276 0.768832L51.8434 5.55146C52.3902 5.98175 52.7935 6.56802 52.9997 7.23262C53.2059 7.89722 53.2053 8.60879 52.9981 9.27307Z" fill="#E74C21"/>
</svg>
