<svg width="1095" height="420" viewBox="0 0 1095 420" fill="none" xmlns="http://www.w3.org/2000/svg">
<path d="M925.849 417.928C919.29 416.156 911.308 408.788 913.017 398.661C913.864 393.638 917.117 390.387 920.49 388.284C925.156 385.376 930.469 384.281 935.59 384.004C941.496 383.684 947.395 384.49 953.258 385.341C959.045 386.182 964.832 386.934 970.645 387.394C993.392 389.178 1016.28 387.479 1038.51 382.355C1044 381.088 1049.45 379.603 1054.87 377.898C1060.01 376.386 1065.03 374.508 1069.9 372.28C1076.35 369.186 1086.83 363.164 1085.98 352.011C1085.52 346.098 1082.04 341.375 1078.53 338.084C1074.28 334.106 1069.37 331.488 1064.55 328.946C1042.17 317.122 1019.73 305.439 997.321 293.686C992.09 290.943 986.825 288.274 981.749 285.06C976.996 282.05 972.266 278.554 968.441 273.721C965.1 269.499 962.115 263.831 962.221 257.496C962.308 252.241 964.699 247.783 967.627 244.451C974.878 236.201 985.134 232.856 994.403 231.103C1005.92 228.927 1017.6 228.938 1029.13 226.836C1038.43 225.139 1048.37 221.862 1055.94 214.184C1059.14 211.061 1061.41 207.105 1062.48 202.763C1063.44 198.216 1062.97 193.48 1061.13 189.211C1059.08 184.315 1055.81 180.414 1052.38 177.22C1048.43 173.603 1043.95 170.61 1039.09 168.346C1028.87 163.476 1018.12 160.94 1007.65 157.202C1002.52 155.369 997.335 153.36 992.567 150.211C988.528 147.544 984.128 143.948 981.881 138.602C977.245 127.57 988.305 120.996 994.573 118.505C998.833 116.89 1003.22 115.633 1007.69 114.75C1008.64 114.547 1008.23 112.661 1007.29 112.863C1002.59 113.78 997.978 115.126 993.519 116.885C989.739 118.455 985.84 120.519 982.871 124.07C981.519 125.673 980.52 127.543 979.938 129.558C979.356 131.572 979.204 133.687 979.492 135.764C980.278 141.057 983.696 145.135 986.906 148.089C991.151 151.996 995.992 154.547 1000.9 156.627C1006.07 158.817 1011.35 160.524 1016.62 162.198C1027.17 165.544 1038.18 168.525 1047.7 175.644C1054.36 180.624 1063.4 189.962 1061.19 201.536C1060.2 206.673 1057.22 210.69 1054 213.645C1050.21 217.012 1045.85 219.665 1041.12 221.474C1020.03 229.963 996.816 223.892 976.268 235.421C969.282 239.341 960.796 246.478 960.728 257.707C960.692 263.54 963.03 268.89 965.921 273.119C969.384 278.184 973.867 281.929 978.429 285.059C983.232 288.235 988.22 291.122 993.365 293.707C998.986 296.659 1004.61 299.608 1010.23 302.552L1044.36 320.447L1061.31 329.339C1066.49 332.052 1071.79 334.656 1076.5 338.639C1080.35 341.901 1084.9 347.252 1084.51 353.896C1084.2 359.173 1080.69 362.981 1077.49 365.527C1073.34 368.824 1068.68 370.956 1064.04 372.728C1058.7 374.772 1053.26 376.468 1047.82 377.992C1036.66 381.11 1025.28 383.338 1013.77 384.656C1002.29 385.978 990.726 386.409 979.181 385.945C973.347 385.711 967.523 385.244 961.707 384.546C955.713 383.824 949.744 382.711 943.734 382.218C938.298 381.771 932.81 381.875 927.457 383.309C922.987 384.507 918.264 386.643 914.871 390.809C912.37 393.989 911.118 397.974 911.35 402.014C911.579 406.045 913.017 409.914 915.474 413.117C917.971 416.389 921.479 418.744 925.453 419.815C926.39 420.069 926.79 418.182 925.849 417.928Z" fill="#E6E6E6"/>
<path d="M1094.97 418.821H924.547V420H1094.97V418.821Z" fill="#3F3D56"/>
<path d="M1081.31 363.307C1087.46 363.307 1092.45 358.322 1092.45 352.174C1092.45 346.025 1087.46 341.041 1081.31 341.041C1075.17 341.041 1070.18 346.025 1070.18 352.174C1070.18 358.322 1075.17 363.307 1081.31 363.307Z" fill="#E6E6E6"/>
<path d="M1061 206.391C1067.15 206.391 1072.14 201.407 1072.14 195.258C1072.14 189.109 1067.15 184.125 1061 184.125C1054.85 184.125 1049.87 189.109 1049.87 195.258C1049.87 201.407 1054.85 206.391 1061 206.391Z" fill="#E6E6E6"/>
<path d="M1035.83 80.4657L1004.92 93.9043C1003.55 94.4997 1002.48 95.6123 1001.93 96.9981C1001.39 98.3839 1001.41 99.9296 1002.01 101.296L1011.61 123.377C1012.2 124.742 1013.31 125.816 1014.7 126.362C1016.09 126.908 1017.63 126.882 1019 126.289L1049.91 112.851C1051.28 112.255 1052.35 111.143 1052.9 109.757C1053.44 108.371 1053.42 106.825 1052.82 105.459L1043.22 83.3781C1042.63 82.0128 1041.52 80.9394 1040.13 80.3935C1038.74 79.8475 1037.2 79.8735 1035.83 80.4657ZM1037.11 83.4098C1037.3 83.3303 1037.49 83.2744 1037.69 83.2434L1027.24 102.962L1005.77 97.0877C1005.91 96.9937 1006.05 96.9135 1006.2 96.8484L1037.11 83.4098ZM1048.63 109.907L1017.72 123.345C1017.13 123.599 1016.47 123.61 1015.88 123.376C1015.28 123.142 1014.8 122.682 1014.55 122.097L1005.04 100.215L1027.63 106.398C1027.98 106.494 1028.36 106.468 1028.69 106.323C1029.03 106.178 1029.3 105.924 1029.47 105.601L1040.41 84.9621L1049.88 106.739C1050.13 107.324 1050.14 107.987 1049.91 108.581C1049.68 109.175 1049.22 109.651 1048.63 109.907Z" fill="#E6E6E6"/>
<path d="M1001.16 271.997C1016.7 271.997 1029.31 259.395 1029.31 243.849C1029.31 228.304 1016.7 215.702 1001.16 215.702C985.614 215.702 973.012 228.304 973.012 243.849C973.012 259.395 985.614 271.997 1001.16 271.997Z" fill="#E74C21"/>
<path d="M996.724 419.168H988.962C988.055 419.167 987.186 418.806 986.545 418.166C985.905 417.525 985.544 416.656 985.543 415.749V351.052C985.544 350.146 985.905 349.277 986.545 348.636C987.186 347.995 988.055 347.634 988.962 347.633H996.724C997.631 347.634 998.5 347.995 999.14 348.636C999.781 349.277 1000.14 350.146 1000.14 351.052V415.749C1000.14 416.656 999.781 417.525 999.14 418.166C998.5 418.806 997.631 419.167 996.724 419.168Z" fill="#2F2E41"/>
<path d="M1012.08 419.168H1004.32C1003.41 419.167 1002.54 418.806 1001.9 418.166C1001.26 417.525 1000.9 416.656 1000.9 415.749V351.052C1000.9 350.146 1001.26 349.277 1001.9 348.636C1002.54 347.995 1003.41 347.634 1004.32 347.633H1012.08C1012.98 347.634 1013.85 347.995 1014.49 348.636C1015.13 349.277 1015.5 350.146 1015.5 351.052V415.749C1015.5 416.656 1015.13 417.525 1014.49 418.166C1013.85 418.806 1012.98 419.167 1012.08 419.168Z" fill="#2F2E41"/>
<path d="M1044.25 344.287C1043.91 344.287 1043.57 344.236 1043.24 344.135C1042.81 344.005 1042.41 343.79 1042.07 343.504C1041.72 343.218 1041.43 342.867 1041.22 342.469L1010.9 285.32C1010.68 284.924 1010.55 284.49 1010.51 284.043C1010.47 283.596 1010.51 283.145 1010.65 282.716C1010.78 282.287 1010.99 281.888 1011.28 281.541C1011.56 281.195 1011.92 280.909 1012.31 280.698L1019.17 277.059C1019.57 276.849 1020 276.718 1020.45 276.676C1020.89 276.633 1021.34 276.679 1021.77 276.81C1022.2 276.942 1022.6 277.157 1022.95 277.443C1023.29 277.729 1023.58 278.08 1023.79 278.476L1054.12 335.625C1054.33 336.022 1054.46 336.456 1054.5 336.903C1054.55 337.35 1054.5 337.801 1054.37 338.23C1054.24 338.659 1054.02 339.058 1053.74 339.404C1053.45 339.751 1053.1 340.037 1052.7 340.247L1045.85 343.886C1045.35 344.149 1044.8 344.287 1044.25 344.287Z" fill="#E74C21"/>
<path d="M990.998 285.273C990.876 285.665 990.684 286.031 990.431 286.354L950.572 337.317C950.295 337.67 949.951 337.966 949.561 338.186C949.17 338.407 948.739 338.548 948.294 338.602C947.848 338.656 947.396 338.622 946.964 338.501C946.532 338.381 946.127 338.176 945.774 337.899L939.658 333.122C938.946 332.561 938.485 331.741 938.375 330.841C938.266 329.941 938.518 329.034 939.076 328.32L978.93 277.357C979.489 276.645 980.308 276.184 981.207 276.073C982.106 275.963 983.012 276.213 983.728 276.769L989.843 281.551C990.39 281.982 990.793 282.568 991 283.233C991.206 283.897 991.205 284.609 990.998 285.273Z" fill="#E74C21"/>
<path d="M1018.48 276.887H983.204C981.462 276.887 980.049 278.3 980.049 280.043V354.976C980.049 356.719 981.462 358.132 983.204 358.132H1018.48C1020.22 358.132 1021.63 356.719 1021.63 354.976V280.043C1021.63 278.3 1020.22 276.887 1018.48 276.887Z" fill="#2F2E41"/>
<path d="M1021.95 216.285C1023.6 219.914 1025.19 224.3 1023.41 228.183C1022.75 229.751 1021.53 231.012 1019.98 231.71C1018.14 232.442 1016.14 232.025 1014.44 231.14C1010.87 229.277 1008.56 225.815 1005.36 223.444C1003.91 222.311 1002.19 221.569 1000.36 221.29C998.263 221.016 996.178 221.511 994.124 221.894C991.94 222.301 989.682 222.515 987.66 221.407C985.881 220.368 984.489 218.777 983.694 216.876C983.277 215.952 981.917 216.753 982.331 217.673C984.051 221.489 987.606 224.09 991.878 223.789C994.139 223.63 996.322 222.9 998.587 222.796C1000.65 222.727 1002.68 223.375 1004.32 224.629C1007.83 227.13 1010.21 230.972 1014.24 232.788C1016.14 233.646 1018.31 234.003 1020.31 233.265C1022.04 232.593 1023.48 231.34 1024.38 229.721C1027.03 225.172 1025.33 219.913 1023.31 215.488C1022.89 214.565 1021.53 215.366 1021.95 216.285Z" fill="#2F2E41"/>
<path d="M1004.27 253.248C1002.53 253.199 1000.37 253.138 998.701 251.92C998.205 251.543 997.797 251.062 997.507 250.51C997.216 249.958 997.049 249.35 997.018 248.727C996.988 248.284 997.061 247.84 997.231 247.431C997.4 247.021 997.663 246.655 997.997 246.364C998.867 245.628 1000.14 245.455 1001.51 245.858L1000.09 235.484L1001.13 235.341L1002.8 247.537L1001.93 247.138C1000.92 246.675 999.537 246.439 998.676 247.167C998.465 247.357 998.3 247.593 998.195 247.857C998.09 248.121 998.047 248.406 998.07 248.69C998.095 249.153 998.22 249.606 998.436 250.017C998.652 250.428 998.954 250.787 999.322 251.071C1000.62 252.019 1002.34 252.141 1004.3 252.196L1004.27 253.248Z" fill="#2F2E41"/>
<path d="M994.935 236.378H989.27V237.43H994.935V236.378Z" fill="#2F2E41"/>
<path d="M1012.82 236.378H1007.15V237.43H1012.82V236.378Z" fill="#2F2E41"/>
<path d="M990.222 286.194L975.571 307.677C975.114 308.347 974.417 308.816 973.624 308.985C972.831 309.155 972.003 309.013 971.312 308.588L961.255 302.407C960.858 302.163 960.52 301.834 960.265 301.443C960.01 301.053 959.845 300.611 959.781 300.149C959.718 299.687 959.757 299.216 959.897 298.772C960.037 298.327 960.274 297.919 960.591 297.576L979.136 277.52C979.652 276.862 980.408 276.436 981.238 276.334C982.068 276.232 982.904 276.463 983.564 276.977L989.68 281.76C990.339 282.276 990.767 283.033 990.868 283.865C990.97 284.696 990.738 285.533 990.222 286.194Z" fill="#2F2E41"/>
<path d="M1011.34 284.673L1022.01 308.388C1022.34 309.128 1022.94 309.711 1023.7 310.017C1024.45 310.322 1025.29 310.327 1026.04 310.03L1037.02 305.703C1037.46 305.532 1037.85 305.267 1038.17 304.928C1038.49 304.588 1038.73 304.181 1038.87 303.738C1039.01 303.294 1039.06 302.824 1039 302.362C1038.94 301.899 1038.78 301.456 1038.52 301.063L1023.77 278.072C1023.38 277.334 1022.71 276.782 1021.91 276.537C1021.11 276.291 1020.25 276.373 1019.51 276.763L1012.65 280.402C1011.91 280.796 1011.36 281.466 1011.11 282.267C1010.87 283.067 1010.95 283.933 1011.34 284.673Z" fill="#2F2E41"/>
</svg>
