<svg width="262" height="340" viewBox="0 0 262 340" fill="none" xmlns="http://www.w3.org/2000/svg">
<g clip-path="url(#clip0_495_5810)">
<path d="M92.8491 337.928C86.29 336.156 78.3076 328.788 80.0165 318.661C80.8641 313.638 84.1171 310.387 87.4901 308.284C92.1556 305.376 97.4691 304.281 102.59 304.004C108.496 303.684 114.395 304.49 120.258 305.341C126.045 306.182 131.832 306.934 137.645 307.394C160.392 309.178 183.277 307.479 205.51 302.355C210.998 301.088 216.452 299.603 221.874 297.898C227.011 296.386 232.034 294.508 236.904 292.28C243.35 289.186 253.833 283.164 252.978 272.011C252.525 266.098 249.042 261.375 245.53 258.084C241.283 254.106 236.368 251.488 231.555 248.946C209.165 237.122 186.732 225.439 164.321 213.686C159.09 210.943 153.825 208.274 148.749 205.06C143.996 202.05 139.266 198.554 135.441 193.721C132.1 189.499 129.115 183.831 129.221 177.496C129.308 172.241 131.699 167.783 134.627 164.451C141.878 156.201 152.134 152.856 161.403 151.103C172.919 148.927 184.602 148.938 196.126 146.836C205.431 145.139 215.373 141.862 222.941 134.184C226.142 131.061 228.406 127.105 229.477 122.763C230.444 118.216 229.974 113.48 228.133 109.211C226.083 104.315 222.813 100.414 219.375 97.2205C215.426 93.6027 210.946 90.61 206.092 88.3461C195.871 83.4758 185.124 80.94 174.655 77.2025C169.521 75.3695 164.335 73.3595 159.567 70.2111C155.528 67.5437 151.128 63.9483 148.881 58.6017C144.245 47.5702 155.305 40.9956 161.573 38.5053C165.833 36.8896 170.221 35.6335 174.69 34.7501C175.635 34.5472 175.234 32.6608 174.294 32.8628C169.589 33.78 164.978 35.1263 160.519 36.8849C156.739 38.4552 152.84 40.5189 149.871 44.07C148.519 45.6734 147.52 47.5431 146.938 49.5577C146.356 51.5723 146.204 53.6868 146.492 55.764C147.278 61.057 150.696 65.1354 153.906 68.0895C158.151 71.9959 162.992 74.5471 167.899 76.6266C173.068 78.8168 178.346 80.5238 183.622 82.198C194.166 85.5436 205.182 88.5251 214.7 95.6442C221.358 100.624 230.402 109.962 228.188 121.536C227.205 126.673 224.219 130.69 220.997 133.645C217.214 137.012 212.851 139.665 208.12 141.474C187.029 149.963 163.816 143.892 143.268 155.421C136.282 159.341 127.796 166.478 127.728 177.707C127.692 183.54 130.03 188.89 132.921 193.119C136.384 198.184 140.867 201.929 145.429 205.059C150.232 208.235 155.22 211.122 160.365 213.707C165.986 216.659 171.608 219.608 177.231 222.552L211.356 240.447L228.311 249.339C233.486 252.052 238.793 254.656 243.498 258.639C247.351 261.901 251.902 267.252 251.509 273.896C251.197 279.173 247.692 282.981 244.488 285.527C240.34 288.824 235.681 290.956 231.045 292.728C225.698 294.772 220.262 296.468 214.816 297.992C203.661 301.11 192.276 303.338 180.769 304.656C169.29 305.978 157.726 306.409 146.181 305.945C140.347 305.711 134.523 305.244 128.707 304.546C122.713 303.824 116.744 302.711 110.734 302.218C105.298 301.771 99.8099 301.875 94.4565 303.309C89.9865 304.507 85.2641 306.643 81.871 310.809C79.3701 313.989 78.1177 317.974 78.3495 322.014C78.5793 326.045 80.0165 329.914 82.4744 333.117C84.971 336.389 88.479 338.744 92.4526 339.815C93.3896 340.069 93.7902 338.182 92.8491 337.928Z" fill="#E6E6E6"/>
<path d="M261.968 338.821H91.5469V340H261.968V338.821Z" fill="#3F3D56"/>
<path d="M248.315 283.307C254.463 283.307 259.448 278.322 259.448 272.174C259.448 266.025 254.463 261.041 248.315 261.041C242.166 261.041 237.182 266.025 237.182 272.174C237.182 278.322 242.166 283.307 248.315 283.307Z" fill="#E6E6E6"/>
<path d="M228.002 126.391C234.151 126.391 239.135 121.407 239.135 115.258C239.135 109.109 234.151 104.125 228.002 104.125C221.854 104.125 216.869 109.109 216.869 115.258C216.869 121.407 221.854 126.391 228.002 126.391Z" fill="#E6E6E6"/>
<path d="M202.832 0.465744L171.919 13.9043C170.554 14.4997 169.48 15.6123 168.934 16.9981C168.388 18.3839 168.414 19.9296 169.007 21.2963L178.606 43.3769C179.201 44.7422 180.314 45.8156 181.699 46.3616C183.085 46.9076 184.631 46.8816 185.998 46.2893L216.911 32.8507C218.276 32.2554 219.349 31.1428 219.895 29.757C220.441 28.3712 220.415 26.8254 219.823 25.4588L210.224 3.37814C209.629 2.01284 208.516 0.939448 207.13 0.393457C205.745 -0.152534 204.199 -0.126536 202.832 0.465744ZM204.112 3.40983C204.297 3.33033 204.491 3.27443 204.69 3.24345L194.239 22.962L172.773 17.0877C172.906 16.9937 173.049 16.9135 173.199 16.8484L204.112 3.40983ZM215.631 29.9067L184.718 43.3453C184.132 43.5991 183.47 43.6102 182.876 43.3762C182.282 43.1422 181.805 42.6822 181.55 42.0971L172.037 20.2147L194.631 26.3978C194.983 26.4941 195.357 26.4676 195.692 26.3228C196.027 26.178 196.302 25.9235 196.473 25.6013L207.412 4.96209L216.879 26.7386C217.133 27.3244 217.144 27.9868 216.91 28.5807C216.676 29.1747 216.216 29.6515 215.631 29.9067Z" fill="#E6E6E6"/>
<path d="M168.159 191.997C183.705 191.997 196.307 179.395 196.307 163.849C196.307 148.304 183.705 135.702 168.159 135.702C152.614 135.702 140.012 148.304 140.012 163.849C140.012 179.395 152.614 191.997 168.159 191.997Z" fill="#E74C21"/>
<path d="M163.724 339.168H155.962C155.055 339.167 154.186 338.806 153.545 338.166C152.905 337.525 152.544 336.656 152.543 335.749V271.052C152.544 270.146 152.905 269.277 153.545 268.636C154.186 267.995 155.055 267.634 155.962 267.633H163.724C164.631 267.634 165.5 267.995 166.14 268.636C166.781 269.277 167.142 270.146 167.143 271.052V335.749C167.142 336.656 166.781 337.525 166.14 338.166C165.5 338.806 164.631 339.167 163.724 339.168Z" fill="#2F2E41"/>
<path d="M179.078 339.168H171.315C170.409 339.167 169.54 338.806 168.899 338.166C168.258 337.525 167.898 336.656 167.896 335.749V271.052C167.898 270.146 168.258 269.277 168.899 268.636C169.54 267.995 170.409 267.634 171.315 267.633H179.078C179.984 267.634 180.853 267.995 181.494 268.636C182.135 269.277 182.495 270.146 182.496 271.052V335.749C182.495 336.656 182.135 337.525 181.494 338.166C180.853 338.806 179.984 339.167 179.078 339.168Z" fill="#2F2E41"/>
<path d="M211.247 264.287C210.906 264.287 210.567 264.236 210.241 264.135C209.811 264.005 209.411 263.79 209.065 263.504C208.719 263.218 208.433 262.867 208.223 262.469L177.895 205.32C177.685 204.924 177.554 204.49 177.512 204.043C177.469 203.596 177.515 203.145 177.646 202.716C177.778 202.287 177.993 201.888 178.278 201.541C178.564 201.195 178.916 200.909 179.312 200.698L186.169 197.059C186.565 196.849 186.999 196.718 187.446 196.676C187.893 196.633 188.344 196.679 188.774 196.81C189.203 196.942 189.602 197.157 189.948 197.443C190.294 197.729 190.581 198.08 190.791 198.476L221.119 255.625C221.329 256.022 221.46 256.456 221.503 256.903C221.545 257.35 221.5 257.801 221.368 258.23C221.236 258.659 221.022 259.058 220.736 259.404C220.45 259.751 220.098 260.037 219.702 260.247L212.845 263.886C212.353 264.149 211.804 264.287 211.247 264.287Z" fill="#E74C21"/>
<path d="M157.998 205.273C157.876 205.665 157.684 206.031 157.431 206.354L117.572 257.317C117.295 257.67 116.951 257.966 116.561 258.186C116.17 258.407 115.739 258.548 115.294 258.602C114.848 258.656 114.396 258.622 113.964 258.501C113.532 258.381 113.127 258.176 112.774 257.899L106.658 253.122C105.946 252.561 105.485 251.741 105.375 250.841C105.266 249.941 105.518 249.034 106.076 248.32L145.93 197.357C146.489 196.645 147.308 196.184 148.207 196.073C149.106 195.963 150.012 196.213 150.728 196.769L156.843 201.551C157.39 201.982 157.793 202.568 158 203.233C158.206 203.897 158.205 204.609 157.998 205.273Z" fill="#E74C21"/>
<path d="M185.475 196.887H150.204C148.462 196.887 147.049 198.3 147.049 200.043V274.976C147.049 276.719 148.462 278.132 150.204 278.132H185.475C187.218 278.132 188.631 276.719 188.631 274.976V200.043C188.631 198.3 187.218 196.887 185.475 196.887Z" fill="#2F2E41"/>
<path d="M188.95 136.285C190.604 139.914 192.187 144.3 190.407 148.183C189.753 149.751 188.528 151.012 186.98 151.71C185.145 152.442 183.145 152.025 181.445 151.14C177.865 149.277 175.558 145.815 172.362 143.444C170.907 142.311 169.186 141.569 167.363 141.29C165.263 141.016 163.178 141.511 161.124 141.894C158.94 142.301 156.682 142.515 154.66 141.407C152.881 140.368 151.489 138.777 150.694 136.876C150.277 135.952 148.917 136.753 149.331 137.673C151.051 141.489 154.606 144.09 158.878 143.789C161.139 143.63 163.322 142.9 165.587 142.796C167.652 142.727 169.678 143.375 171.321 144.629C174.83 147.13 177.212 150.972 181.237 152.788C183.137 153.646 185.312 154.003 187.314 153.265C189.042 152.593 190.481 151.34 191.384 149.721C194.026 145.172 192.329 139.913 190.312 135.488C189.892 134.565 188.531 135.366 188.95 136.285Z" fill="#2F2E41"/>
<path d="M171.271 173.248C169.533 173.199 167.368 173.138 165.701 171.92C165.205 171.543 164.797 171.062 164.507 170.51C164.216 169.958 164.049 169.35 164.018 168.727C163.988 168.284 164.061 167.84 164.231 167.431C164.4 167.021 164.663 166.655 164.997 166.364C165.867 165.628 167.138 165.455 168.509 165.858L167.089 155.484L168.132 155.341L169.801 167.537L168.931 167.138C167.922 166.675 166.537 166.439 165.676 167.167C165.465 167.357 165.3 167.593 165.195 167.857C165.09 168.121 165.047 168.406 165.07 168.69C165.095 169.153 165.22 169.606 165.436 170.017C165.652 170.428 165.954 170.787 166.322 171.071C167.619 172.019 169.344 172.141 171.301 172.196L171.271 173.248Z" fill="#2F2E41"/>
<path d="M161.935 156.378H156.27V157.43H161.935V156.378Z" fill="#2F2E41"/>
<path d="M179.817 156.378H174.152V157.43H179.817V156.378Z" fill="#2F2E41"/>
<path d="M157.222 206.194L142.571 227.677C142.114 228.347 141.417 228.816 140.624 228.985C139.831 229.155 139.003 229.013 138.312 228.588L128.255 222.407C127.858 222.163 127.52 221.834 127.265 221.443C127.01 221.053 126.845 220.611 126.781 220.149C126.718 219.687 126.757 219.216 126.897 218.772C127.037 218.327 127.274 217.919 127.591 217.576L146.136 197.52C146.652 196.862 147.408 196.436 148.238 196.334C149.068 196.232 149.904 196.463 150.564 196.977L156.68 201.76C157.339 202.276 157.767 203.033 157.868 203.865C157.97 204.696 157.738 205.533 157.222 206.194Z" fill="#2F2E41"/>
<path d="M178.34 204.673L189.008 228.388C189.34 229.128 189.945 229.711 190.696 230.017C191.447 230.322 192.287 230.327 193.042 230.03L204.025 225.703C204.459 225.532 204.849 225.267 205.168 224.928C205.488 224.588 205.728 224.181 205.871 223.738C206.014 223.294 206.058 222.824 205.998 222.362C205.938 221.899 205.776 221.456 205.524 221.063L190.773 198.072C190.38 197.334 189.71 196.782 188.911 196.537C188.112 196.291 187.248 196.373 186.508 196.763L179.65 200.402C178.91 200.796 178.357 201.466 178.112 202.267C177.866 203.067 177.948 203.933 178.34 204.673Z" fill="#2F2E41"/>
</g>
<defs>
<clipPath id="clip0_495_5810">
<rect width="261.969" height="340" fill="white"/>
</clipPath>
</defs>
</svg>
