<svg width="49" height="41" viewBox="0 0 49 41" fill="none" xmlns="http://www.w3.org/2000/svg">
<path d="M43.9361 5.70426L10.6793 0.209625C9.20947 -0.0315093 7.70401 0.320217 6.49321 1.18765C5.28242 2.05509 4.46515 3.3674 4.2207 4.83665L0.295974 28.5915C0.054826 30.0613 0.406548 31.5668 1.27398 32.7776C2.14142 33.9884 3.45372 34.8056 4.92299 35.0501L38.1798 40.5447C39.6496 40.7859 41.1551 40.4342 42.3659 39.5667C43.5767 38.6993 44.394 37.387 44.6384 35.9177L48.5632 12.1628C48.8043 10.693 48.4526 9.18758 47.5851 7.97678C46.7177 6.76598 45.4054 5.94871 43.9361 5.70426ZM43.4128 8.87158C43.6113 8.90517 43.8046 8.9636 43.9885 9.04552L24.507 19.9325L9.66799 3.34646C9.83127 3.34004 9.99478 3.35026 10.156 3.37695L43.4128 8.87158ZM38.7031 37.3774L5.4463 31.8828C4.81662 31.778 4.25419 31.4277 3.88244 30.9088C3.51068 30.3899 3.35994 29.7447 3.46328 29.1148L7.35278 5.57327L22.9717 23.0311C23.2149 23.3029 23.5435 23.4838 23.9033 23.544C24.263 23.6041 24.6325 23.5399 24.951 23.362L45.3418 11.9667L41.4711 35.3944C41.3664 36.0241 41.0161 36.5865 40.4972 36.9582C39.9783 37.33 39.3331 37.4807 38.7031 37.3774Z" fill="#E6E6E6"/>
</svg>
