<svg width="22" height="18" viewBox="0 0 22 18" fill="none" xmlns="http://www.w3.org/2000/svg">
<path d="M20.5123 4.31182L1.15631 0.136409L0.904763 0.0822726C0.776662 0.0544505 0.643313 0.0633482 0.520045 0.107943C0.396776 0.152537 0.288598 0.231016 0.207948 0.334357C0.127299 0.437698 0.0774528 0.561704 0.064145 0.692113C0.0508371 0.822522 0.0746093 0.95404 0.132722 1.07154L7.81785 16.6782C7.86759 16.7785 7.94069 16.8653 8.031 16.9315C8.12131 16.9976 8.22618 17.0411 8.33679 17.0582C8.44775 17.0754 8.56123 17.0654 8.66745 17.029C8.77367 16.9926 8.86943 16.9309 8.94645 16.8491L14.2844 11.2208C14.3223 11.1797 14.3684 11.147 14.4196 11.1246C14.4709 11.1022 14.5262 11.0907 14.5821 11.0907C14.6581 11.0897 14.733 11.1093 14.7987 11.1475C14.8644 11.1857 14.9185 11.241 14.9552 11.3076L16.0485 13.33C16.1183 13.4648 16.2312 13.5724 16.3693 13.6357C16.5073 13.6989 16.6625 13.7142 16.8102 13.679L16.8157 13.6778C16.9652 13.6461 17.0997 13.5651 17.1976 13.4478C17.2955 13.3304 17.3511 13.1836 17.3554 13.0308L17.5745 8.36256C17.5771 8.30431 17.5916 8.24722 17.6172 8.19483C17.6447 8.14298 17.6819 8.09696 17.7269 8.05932L20.8064 5.53145C20.9076 5.44837 20.9834 5.33844 21.025 5.21428C21.0667 5.09011 21.0724 4.95674 21.0417 4.82943C21.0111 4.70213 20.9451 4.58605 20.8515 4.4945C20.7578 4.40295 20.6403 4.33964 20.5123 4.31182ZM20.6306 5.31655L17.5511 7.84444C17.511 7.87676 17.4746 7.9135 17.4427 7.95396L1.12133 0.551925C1.10693 0.545227 1.09192 0.539962 1.07649 0.536197C1.01354 0.519971 0.946893 0.526255 0.888082 0.553964C0.829272 0.581674 0.781993 0.629064 0.754425 0.687941C0.726856 0.746817 0.720731 0.813474 0.737107 0.876389C0.753484 0.939304 0.791333 0.99452 0.844109 1.03248L14.2639 10.8902C14.1958 10.9256 14.1343 10.9725 14.0822 11.0288L8.74432 16.6572C8.698 16.7059 8.6406 16.7427 8.577 16.7645C8.5134 16.7864 8.44547 16.7925 8.37899 16.7824C8.31251 16.7724 8.24944 16.7464 8.19514 16.7067C8.14085 16.6671 8.09693 16.6149 8.06711 16.5546L0.381985 0.947953C0.347629 0.877437 0.333768 0.798689 0.341984 0.720681C0.350201 0.642672 0.380162 0.568538 0.428457 0.506728C0.476751 0.444918 0.541437 0.397918 0.615142 0.371078C0.688847 0.344238 0.76861 0.338639 0.845341 0.35492L1.10286 0.410569L20.4529 4.58448C20.5297 4.60111 20.6003 4.63905 20.6565 4.69393C20.7128 4.74882 20.7525 4.81845 20.771 4.89484C20.7896 4.97124 20.7863 5.0513 20.7614 5.12588C20.7366 5.20047 20.6912 5.26654 20.6306 5.31655Z" fill="#E74C21"/>
<path d="M20.5123 4.31182L1.15631 0.136409L0.904763 0.0822726C0.776662 0.0544505 0.643313 0.0633482 0.520045 0.107943C0.396776 0.152537 0.288598 0.231016 0.207948 0.334357C0.127299 0.437698 0.0774528 0.561704 0.064145 0.692113C0.0508371 0.822522 0.0746093 0.95404 0.132722 1.07154L7.81785 16.6782C7.86759 16.7785 7.94069 16.8653 8.031 16.9315C8.12131 16.9976 8.22618 17.0411 8.33679 17.0582C8.44775 17.0754 8.56123 17.0654 8.66745 17.029C8.77367 16.9926 8.86943 16.9309 8.94645 16.8491L14.2844 11.2208C14.3223 11.1797 14.3684 11.147 14.4196 11.1246C14.4709 11.1022 14.5262 11.0907 14.5821 11.0907C14.6581 11.0897 14.733 11.1093 14.7987 11.1475C14.8644 11.1857 14.9185 11.241 14.9552 11.3076L16.0485 13.33C16.1183 13.4648 16.2312 13.5724 16.3693 13.6357C16.5073 13.6989 16.6625 13.7142 16.8102 13.679L16.8157 13.6778C16.9652 13.6461 17.0997 13.5651 17.1976 13.4478C17.2955 13.3304 17.3511 13.1836 17.3554 13.0308L17.5745 8.36256C17.5771 8.30431 17.5916 8.24722 17.6172 8.19483C17.6447 8.14298 17.6819 8.09696 17.7269 8.05932L20.8064 5.53145C20.9076 5.44837 20.9834 5.33844 21.025 5.21428C21.0667 5.09011 21.0724 4.95674 21.0417 4.82943C21.0111 4.70213 20.9451 4.58605 20.8515 4.4945C20.7578 4.40295 20.6403 4.33964 20.5123 4.31182ZM20.6306 5.31655L17.5511 7.84444C17.511 7.87676 17.4746 7.9135 17.4427 7.95396C17.4139 7.98995 17.3891 8.02891 17.3686 8.07018C17.3471 8.11238 17.3302 8.15676 17.3181 8.20254L17.3184 8.2039C17.3056 8.2516 17.2983 8.30058 17.2964 8.34992L17.0775 13.0182C17.0756 13.11 17.0426 13.1984 16.9839 13.2689C16.9251 13.3395 16.8441 13.3879 16.7541 13.4063L16.7514 13.4069C16.6628 13.4289 16.5693 13.4203 16.4861 13.3825C16.403 13.3448 16.335 13.28 16.2933 13.1988L15.1996 11.1751C15.1433 11.071 15.0613 10.9831 14.9614 10.9196C14.8615 10.8561 14.747 10.8192 14.6288 10.8123L14.6275 10.8126C14.6116 10.8119 14.5958 10.8111 14.5802 10.8117C14.47 10.8117 14.3614 10.8387 14.2639 10.8902C14.1958 10.9256 14.1343 10.9725 14.0822 11.0288L8.74432 16.6572C8.698 16.7059 8.64061 16.7427 8.577 16.7645C8.5134 16.7864 8.44547 16.7925 8.37899 16.7824C8.31251 16.7724 8.24945 16.7464 8.19515 16.7067C8.14085 16.6671 8.09693 16.6149 8.06712 16.5546L0.381985 0.947953C0.347629 0.877437 0.333768 0.798689 0.341984 0.720681C0.350201 0.642672 0.380162 0.568538 0.428457 0.506728C0.476751 0.444918 0.541437 0.397918 0.615142 0.371078C0.688847 0.344238 0.76861 0.338639 0.845341 0.35492L1.10286 0.410569L20.4529 4.58448C20.5297 4.60111 20.6003 4.63905 20.6565 4.69393C20.7128 4.74882 20.7525 4.81845 20.771 4.89484C20.7896 4.97124 20.7863 5.0513 20.7614 5.12588C20.7366 5.20047 20.6912 5.26654 20.6306 5.31655Z" fill="#3F3D56"/>
<path d="M17.5029 7.98163L17.3879 8.23523L17.3168 8.20389L17.3165 8.20253L1.00808 0.807629L14.626 10.8126L14.6273 10.8123L14.6633 10.84L14.4991 11.0645L14.2624 10.8902L0.842555 1.03245C0.789779 0.994491 0.75193 0.939279 0.735553 0.876364C0.719177 0.813449 0.725302 0.746788 0.75287 0.687911C0.780439 0.629035 0.827718 0.581644 0.886528 0.553935C0.945339 0.526226 1.01198 0.519941 1.07494 0.536167C1.09036 0.539932 1.10538 0.545202 1.11977 0.5519L17.4411 7.95393L17.5029 7.98163Z" fill="#3F3D56"/>
</svg>
