<svg width="100" height="93" viewBox="0 0 100 93" fill="none" xmlns="http://www.w3.org/2000/svg">
<g clip-path="url(#clip0_174_3645)">
<path d="M53.4762 55.2444C53.4762 55.9348 52.9166 56.4944 52.2262 56.4944C51.5358 56.4944 50.9762 55.9348 50.9762 55.2444V45.7619L48.1112 48.6294C47.6224 49.1182 46.83 49.1182 46.3412 48.6294C45.8524 48.1407 45.8524 47.3482 46.3412 46.8594L51.3412 41.8594C51.8287 41.3706 52.6202 41.3697 53.109 41.8572L53.1112 41.8594L58.1112 46.8594C58.6 47.3482 58.6 48.1407 58.1112 48.6294C57.6224 49.1182 56.83 49.1182 56.3412 48.6294L53.4762 45.7619V55.2444Z" fill="#E74C21"/>
<path d="M65 61.5V37.75L53.75 26.5H40C37.2386 26.5 35 28.7386 35 31.5V61.5C35 64.2614 37.2386 66.5 40 66.5H60C62.7614 66.5 65 64.2614 65 61.5ZM53.75 34C53.75 36.0711 55.4289 37.75 57.5 37.75H62.5V61.5C62.5 62.8807 61.3807 64 60 64H40C38.6193 64 37.5 62.8807 37.5 61.5V31.5C37.5 30.1193 38.6193 29 40 29H53.75V34Z" fill="#E74C21"/>
</g>
<defs>
<clipPath id="clip0_174_3645">
<rect width="100" height="93" fill="white"/>
</clipPath>
</defs>
</svg>
