<svg width="100" height="93" viewBox="0 0 100 93" fill="none" xmlns="http://www.w3.org/2000/svg">
<g clip-path="url(#clip0_174_3607)">
<path d="M75.0341 11.1566L71.5515 11.1326L28.6444 10.836L25.1617 10.8119C23.4708 10.8022 21.8472 11.4621 20.6471 12.647C19.4471 13.832 18.7687 15.4451 18.7606 17.1325L18.5473 75.5713C18.5431 77.2587 19.2097 78.8811 20.4011 80.0826C21.5924 81.284 23.2111 81.9664 24.902 81.98L24.911 81.98L74.7654 82.3246L74.7744 82.3247C76.4653 82.3344 78.0889 81.6745 79.289 80.4896C80.489 79.3046 81.1675 77.6915 81.1755 76.0041L81.3888 17.5653C81.393 15.8779 80.7264 14.2555 79.5351 13.054C78.3437 11.8526 76.7251 11.1702 75.0341 11.1566Z" fill="#F2F2F2"/>
<path d="M75.0252 12.9901L70.9003 12.9615L29.2776 12.6739L25.1527 12.6454C23.9486 12.6384 22.7924 13.1084 21.9378 13.9522C21.0832 14.796 20.6001 15.9447 20.5944 17.1464L20.3811 75.5852C20.3781 76.7868 20.8528 77.9422 21.7012 78.7978C22.5495 79.6533 23.7022 80.1393 24.9064 80.1489L24.9154 80.149L74.7698 80.4935L74.7789 80.4936C75.983 80.5006 77.1392 80.0306 77.9938 79.1868C78.8483 78.343 79.3315 77.1942 79.3372 75.9926L79.5505 17.5538C79.5535 16.3522 79.0788 15.1968 78.2304 14.3413C77.3821 13.4857 76.2294 12.9997 75.0252 12.9901Z" fill="white"/>
<path d="M67.8617 27.209L49.268 27.0805C48.9863 27.0786 48.7165 26.9651 48.5181 26.7649C48.3196 26.5648 48.2087 26.2944 48.2097 26.0133C48.2108 25.7322 48.3236 25.4634 48.5235 25.266C48.7234 25.0686 48.994 24.9588 49.2757 24.9608L67.8695 25.0893C68.1512 25.0912 68.4209 25.2048 68.6194 25.4049C68.8178 25.605 68.9287 25.8754 68.9277 26.1565C68.9267 26.4376 68.8138 26.7064 68.6139 26.9038C68.414 27.1012 68.1434 27.211 67.8617 27.209Z" fill="#F2F2F2"/>
<path d="M72.2291 30.8137L49.2542 30.655C48.9725 30.653 48.7028 30.5395 48.5044 30.3393C48.3059 30.1392 48.195 29.8688 48.196 29.5877C48.197 29.3066 48.3099 29.0378 48.5098 28.8404C48.7097 28.6431 48.9803 28.5333 49.262 28.5352L72.2369 28.694C72.3763 28.695 72.5144 28.7233 72.643 28.7775C72.7717 28.8316 72.8885 28.9105 72.9868 29.0096C73.085 29.1087 73.1628 29.2261 73.2157 29.355C73.2686 29.484 73.2956 29.622 73.2951 29.7612C73.2946 29.9004 73.2666 30.038 73.2128 30.1662C73.1589 30.2945 73.0803 30.4108 72.9813 30.5085C72.8823 30.6062 72.7649 30.6835 72.6359 30.7359C72.5068 30.7882 72.3686 30.8147 72.2291 30.8137Z" fill="#F2F2F2"/>
<path d="M45.1759 20.5963L28.0335 20.4778C27.8985 20.4769 27.7689 20.5295 27.6731 20.6241C27.5774 20.7187 27.5233 20.8475 27.5228 20.9821L27.474 34.3329C27.4736 34.4676 27.5267 34.5971 27.6218 34.693C27.7169 34.7889 27.8461 34.8433 27.9811 34.8443L45.1235 34.9628C45.2584 34.9637 45.388 34.9111 45.4838 34.8165C45.5796 34.7219 45.6337 34.5931 45.6342 34.4585L45.6829 21.1077C45.6834 20.973 45.6302 20.8434 45.5352 20.7476C45.4401 20.6517 45.3109 20.5972 45.1759 20.5963Z" fill="#F2F2F2"/>
<path d="M67.7723 44.1315L42.5521 43.9572C42.4126 43.9563 42.2746 43.9279 42.146 43.8737C42.0173 43.8196 41.9005 43.7407 41.8022 43.6416C41.704 43.5425 41.6262 43.4251 41.5733 43.2962C41.5204 43.1672 41.4934 43.0292 41.4939 42.89C41.4944 42.7508 41.5224 42.6132 41.5762 42.485C41.6301 42.3567 41.7087 42.2404 41.8077 42.1427C41.9067 42.045 42.0241 41.9677 42.1531 41.9153C42.2822 41.863 42.4204 41.8365 42.5599 41.8375L67.78 42.0118C68.0617 42.0137 68.3314 42.1272 68.5299 42.3274C68.7283 42.5275 68.8393 42.7979 68.8382 43.079C68.8372 43.3601 68.7243 43.6289 68.5244 43.8263C68.3245 44.0237 68.054 44.1335 67.7723 44.1315Z" fill="#F2F2F2"/>
<path d="M72.1397 47.7406L42.5384 47.5361C42.2567 47.5341 41.987 47.4206 41.7885 47.2204C41.5901 47.0203 41.4792 46.7499 41.4802 46.4688C41.4812 46.1877 41.5941 45.9189 41.794 45.7215C41.9939 45.5241 42.2644 45.4144 42.5461 45.4163L72.1474 45.6209C72.4291 45.6228 72.6988 45.7364 72.8973 45.9365C73.0957 46.1366 73.2067 46.407 73.2056 46.6881C73.2046 46.9692 73.0917 47.238 72.8918 47.4354C72.6919 47.6328 72.4214 47.7426 72.1397 47.7406Z" fill="#F2F2F2"/>
<path d="M30.3954 48.509C32.5756 49.7136 35.3157 48.9295 36.5156 46.7578C37.7155 44.586 36.9208 41.849 34.7406 40.6444C32.5604 39.4399 29.8203 40.2239 28.6204 42.3957C27.4205 44.5674 28.2152 47.3045 30.3954 48.509Z" fill="#F2F2F2"/>
<path d="M75.3016 11H25.3837C23.6912 11.0019 22.0686 11.6725 20.8718 12.8646C19.6751 14.0567 19.0019 15.6731 19 17.359V75.746C19.0019 77.432 19.6751 79.0483 20.8718 80.2404C22.0686 81.4325 23.6912 82.1031 25.3837 82.105H75.3016C76.994 82.1031 78.6167 81.4325 79.8134 80.2404C81.0102 79.0483 81.6834 77.432 81.6853 75.746V17.359C81.6834 15.6731 81.0102 14.0567 79.8134 12.8646C78.6167 11.6725 76.994 11.0019 75.3016 11Z" fill="#E6E6E6"/>
<path d="M75.3018 12.832H25.3839C24.1786 12.8334 23.0231 13.3109 22.1709 14.1598C21.3186 15.0088 20.8392 16.1598 20.8379 17.3604V75.7474C20.8392 76.948 21.3186 78.0991 22.1709 78.948C23.0231 79.7969 24.1786 80.2745 25.3839 80.2758H75.3018C76.5071 80.2745 77.6625 79.7969 78.5148 78.948C79.367 78.099 79.8464 76.948 79.8477 75.7474V17.3604C79.8464 16.1598 79.367 15.0088 78.5148 14.1599C77.6626 13.3109 76.5071 12.8334 75.3018 12.832Z" fill="white"/>
<path d="M68.1836 27.0866H49.5728C49.2909 27.0866 49.0205 26.9751 48.8211 26.7765C48.6218 26.5779 48.5098 26.3085 48.5098 26.0277C48.5098 25.7468 48.6218 25.4775 48.8211 25.2789C49.0205 25.0803 49.2909 24.9688 49.5728 24.9688H68.1836C68.3233 24.9686 68.4616 24.9959 68.5907 25.049C68.7199 25.1022 68.8372 25.1801 68.936 25.2785C69.0349 25.3768 69.1133 25.4936 69.1668 25.6222C69.2203 25.7507 69.2478 25.8885 69.2478 26.0277C69.2478 26.1669 69.2203 26.3046 69.1668 26.4332C69.1133 26.5618 69.0349 26.6785 68.936 26.7769C68.8372 26.8752 68.7199 26.9532 68.5907 27.0064C68.4616 27.0595 68.3233 27.0868 68.1836 27.0866Z" fill="#E74C21"/>
<path d="M72.5687 30.6609H49.5728C49.2909 30.6609 49.0205 30.5493 48.8211 30.3507C48.6218 30.1521 48.5098 29.8828 48.5098 29.6019C48.5098 29.3211 48.6218 29.0517 48.8211 28.8531C49.0205 28.6545 49.2909 28.543 49.5728 28.543H72.5687C72.8506 28.543 73.121 28.6545 73.3204 28.8531C73.5197 29.0517 73.6317 29.3211 73.6317 29.6019C73.6317 29.8828 73.5197 30.1521 73.3204 30.3507C73.121 30.5493 72.8506 30.6609 72.5687 30.6609Z" fill="#E74C21"/>
<path d="M45.4525 20.6367H28.2945C28.1594 20.6368 28.0299 20.6902 27.9344 20.7854C27.8389 20.8805 27.7852 21.0096 27.7852 21.1441V34.4831C27.7852 34.6177 27.8389 34.7467 27.9344 34.8418C28.0299 34.937 28.1594 34.9905 28.2945 34.9905H45.4525C45.5876 34.9905 45.7172 34.937 45.8127 34.8418C45.9082 34.7467 45.9619 34.6177 45.9619 34.4831V21.1441C45.9619 21.0096 45.9082 20.8805 45.8127 20.7854C45.7172 20.6902 45.5876 20.6368 45.4525 20.6367Z" fill="#E6E6E6"/>
<path d="M33.0017 28.8282C33.0088 29.9542 32.5921 31.0421 31.8339 31.8773C31.0836 32.6975 29.9667 33.2414 28.8396 33.0164C27.8017 32.8091 26.9584 31.9056 27.0636 30.8124C27.081 30.5757 27.1501 30.3455 27.266 30.1381C27.3819 29.9306 27.5418 29.7509 27.7346 29.6113C27.9274 29.4717 28.1484 29.3757 28.3823 29.33C28.6162 29.2842 28.8572 29.2898 29.0887 29.3464C30.0746 29.6012 30.4675 31.0167 29.6459 31.6811C29.4487 31.8405 29.1655 31.5617 29.3645 31.4008C29.9076 30.9616 29.7398 30.0007 29.0843 29.7598C28.3211 29.4792 27.5124 30.0826 27.4575 30.8599C27.3925 31.7814 28.1012 32.4754 28.9703 32.6388C29.9105 32.8156 30.8427 32.3362 31.4797 31.6746C32.2099 30.9063 32.6128 29.8861 32.6038 28.8282C32.6056 28.7768 32.6273 28.7281 32.6644 28.6924C32.7016 28.6567 32.7512 28.6367 32.8028 28.6367C32.8544 28.6367 32.904 28.6567 32.9411 28.6924C32.9782 28.7281 32.9999 28.7768 33.0017 28.8282Z" fill="#2F2E41"/>
<path d="M36.8883 31.3466C40.8091 31.3466 43.9875 28.1805 43.9875 24.2749C43.9875 20.3692 40.8091 17.2031 36.8883 17.2031C32.9675 17.2031 29.7891 20.3692 29.7891 24.2749C29.7891 28.1805 32.9675 31.3466 36.8883 31.3466Z" fill="#E74C21"/>
<path d="M36.525 27.2917L36.5176 27.0275C37.0111 27.0138 37.4462 26.9829 37.7732 26.745C37.8659 26.6737 37.9421 26.5834 37.9966 26.4801C38.0511 26.3769 38.0826 26.2631 38.0891 26.1467C38.0948 26.0755 38.084 26.004 38.0575 25.9376C38.031 25.8713 37.9895 25.8119 37.9362 25.7642C37.7191 25.5816 37.3699 25.6407 37.1153 25.757L36.8958 25.8572L37.3168 22.793L37.5796 22.8288L37.2216 25.4354C37.5674 25.3341 37.8879 25.3777 38.1074 25.5624C38.1917 25.6357 38.2578 25.7274 38.3006 25.8304C38.3434 25.9333 38.3618 26.0448 38.3542 26.1559C38.3464 26.3124 38.3044 26.4654 38.2311 26.604C38.1578 26.7426 38.0549 26.8636 37.9297 26.9584C37.5096 27.2643 36.9636 27.2795 36.525 27.2917Z" fill="#2F2E41"/>
<path d="M40.3077 23.0547H38.8789V23.319H40.3077V23.0547Z" fill="#2F2E41"/>
<path d="M35.798 23.0547H34.3691V23.319H35.798V23.0547Z" fill="#2F2E41"/>
<path d="M32.9551 34.9891C33.4872 34.6528 34.0623 34.3892 34.6649 34.2056C34.6074 34.0019 34.6083 33.7863 34.6676 33.5832C34.7476 33.3266 34.9087 33.1026 35.127 32.9447C35.3453 32.7868 35.6089 32.7035 35.8786 32.7071H37.6084C37.8786 32.7037 38.1426 32.7873 38.3613 32.9453C38.58 33.1034 38.7416 33.3276 38.8222 33.5845C38.8814 33.7872 38.8823 34.0024 38.8247 34.2056C39.4273 34.3895 40.0024 34.653 40.5346 34.9891H32.9551Z" fill="#2F2E41"/>
<path d="M45.0199 21.6493C44.8906 21.4933 44.7314 21.3644 44.5517 21.2701C44.394 21.1881 44.2189 21.145 44.041 21.1445C43.7967 21.1475 43.5596 21.227 43.3632 21.3718C42.8233 21.7524 42.4492 22.5729 42.4492 23.523C42.4492 24.7148 43.0382 25.7032 43.8036 25.875C43.8815 25.8924 43.9611 25.9012 44.041 25.9014C44.9178 25.9014 45.6328 24.8351 45.6328 23.523C45.6328 22.7619 45.3927 22.084 45.0199 21.6493Z" fill="#3F3D56"/>
<path d="M30.4392 21.315H30.4379C30.2606 21.2053 30.0564 21.1463 29.8476 21.1445C29.6698 21.145 29.4946 21.1881 29.3369 21.2701C29.1572 21.3644 28.9981 21.4933 28.8687 21.6493L28.8673 21.6506C28.496 22.0853 28.2559 22.7632 28.2559 23.523C28.2559 24.5483 28.6909 25.423 29.3011 25.7573C29.4681 25.8506 29.6562 25.9001 29.8476 25.9014C29.8902 25.9014 29.9327 25.8987 29.975 25.8934H29.9763C30.7934 25.7957 31.4394 24.7703 31.4394 23.523C31.4394 22.524 31.0242 21.6665 30.4392 21.315Z" fill="#3F3D56"/>
<path d="M29.3996 25.5325C29.4312 25.5325 29.4623 25.525 29.4904 25.5106C29.5185 25.4962 29.5428 25.4754 29.5612 25.4498C29.5796 25.4243 29.5917 25.3947 29.5964 25.3636C29.6011 25.3325 29.5983 25.3007 29.5882 25.2709C29.2079 24.1444 29.0935 22.9458 29.2539 21.7681C29.4143 20.5904 29.8451 19.4654 30.5129 18.4806C31.1807 17.4958 32.0675 16.6776 33.1043 16.0896C34.1412 15.5017 35.3002 15.1598 36.4912 15.0906C37.6823 15.0214 38.8733 15.2266 39.9718 15.6905C41.0702 16.1543 42.0465 16.8642 42.8248 17.7651C43.603 18.6659 44.1622 19.7333 44.459 20.8844C44.7558 22.0355 44.7821 23.2393 44.5359 24.4021C44.525 24.4536 44.5351 24.5072 44.5639 24.5513C44.5927 24.5953 44.6379 24.6261 44.6896 24.637C44.7412 24.6478 44.795 24.6378 44.8393 24.6091C44.8835 24.5804 44.9144 24.5354 44.9253 24.4839C45.1843 23.2613 45.1568 21.9957 44.8449 20.7853C44.5329 19.575 43.945 18.4527 43.1268 17.5055C42.3086 16.5584 41.2822 15.8119 40.1272 15.3242C38.9723 14.8365 37.7201 14.6207 36.4678 14.6935C35.2155 14.7663 33.9969 15.1258 32.9068 15.744C31.8167 16.3623 30.8844 17.2226 30.1824 18.2582C29.4804 19.2937 29.0275 20.4766 28.8591 21.7148C28.6906 22.953 28.8111 24.2133 29.2111 25.3976C29.2244 25.4369 29.2498 25.4711 29.2836 25.4953C29.3174 25.5195 29.358 25.5325 29.3996 25.5325Z" fill="#3F3D56"/>
<path d="M40.4541 19.695C40.7352 20.0773 40.5967 20.5924 40.3005 20.9219C39.9151 21.3508 39.3005 21.3778 38.7668 21.2982C38.168 21.2089 37.5328 20.9295 36.9266 21.1178C36.4099 21.2783 36.0413 21.7452 35.5045 21.8624C35.0284 21.9664 34.4591 21.8287 34.2922 21.3233C34.212 21.0804 34.5962 20.9763 34.6759 21.2179C34.7839 21.5449 35.2501 21.5384 35.5171 21.4478C35.9451 21.3027 36.275 20.9495 36.6957 20.7809C37.1918 20.582 37.7299 20.6718 38.2349 20.7851C38.7109 20.8919 39.2587 21.0502 39.7328 20.8507C40.0837 20.7031 40.3629 20.2383 40.1105 19.8951C39.959 19.6891 40.3042 19.4911 40.4541 19.695Z" fill="#2F2E41"/>
<path d="M68.1539 43.9968H42.9107C42.7711 43.9968 42.6329 43.9694 42.5039 43.9162C42.3749 43.863 42.2577 43.785 42.159 43.6866C42.0603 43.5883 41.982 43.4716 41.9286 43.3431C41.8752 43.2146 41.8477 43.0769 41.8477 42.9378C41.8477 42.7988 41.8752 42.6611 41.9286 42.5326C41.982 42.4041 42.0603 42.2874 42.159 42.1891C42.2577 42.0907 42.3749 42.0127 42.5039 41.9595C42.6329 41.9063 42.7711 41.8789 42.9107 41.8789H68.1539C68.4356 41.8792 68.7057 41.9909 68.9048 42.1895C69.1039 42.388 69.2157 42.6572 69.2157 42.9378C69.2157 43.2185 69.1039 43.4877 68.9048 43.6862C68.7057 43.8848 68.4356 43.9965 68.1539 43.9968Z" fill="#E6E6E6"/>
<path d="M72.5402 47.5671H42.9119C42.7722 47.5673 42.6338 47.54 42.5047 47.4868C42.3756 47.4337 42.2583 47.3557 42.1594 47.2574C42.0606 47.159 41.9822 47.0422 41.9287 46.9137C41.8752 46.7851 41.8477 46.6473 41.8477 46.5082C41.8477 46.369 41.8752 46.2312 41.9287 46.1026C41.9822 45.9741 42.0606 45.8573 42.1594 45.759C42.2583 45.6606 42.3756 45.5826 42.5047 45.5295C42.6338 45.4763 42.7722 45.4491 42.9119 45.4492H72.5402C72.6799 45.4491 72.8182 45.4763 72.9473 45.5295C73.0765 45.5826 73.1938 45.6606 73.2926 45.759C73.3915 45.8573 73.4699 45.9741 73.5234 46.1026C73.5769 46.2312 73.6044 46.369 73.6044 46.5082C73.6044 46.6473 73.5769 46.7851 73.5234 46.9137C73.4699 47.0422 73.3915 47.159 73.2926 47.2574C73.1938 47.3557 73.0765 47.4337 72.9473 47.4868C72.8182 47.54 72.6799 47.5673 72.5402 47.5671Z" fill="#E6E6E6"/>
<path d="M68.1539 56.8405H42.9107C42.6288 56.8405 42.3584 56.729 42.159 56.5304C41.9597 56.3318 41.8477 56.0625 41.8477 55.7816C41.8477 55.5008 41.9597 55.2314 42.159 55.0328C42.3584 54.8342 42.6288 54.7227 42.9107 54.7227H68.1539C68.4358 54.7227 68.7062 54.8342 68.9055 55.0328C69.1049 55.2314 69.2169 55.5008 69.2169 55.7816C69.2169 56.0625 69.1049 56.3318 68.9055 56.5304C68.7062 56.729 68.4358 56.8405 68.1539 56.8405Z" fill="#E6E6E6"/>
<path d="M72.539 60.4148H42.9107C42.6288 60.4148 42.3584 60.3032 42.159 60.1046C41.9597 59.906 41.8477 59.6367 41.8477 59.3558C41.8477 59.075 41.9597 58.8056 42.159 58.607C42.3584 58.4084 42.6288 58.2969 42.9107 58.2969H72.539C72.8209 58.2969 73.0913 58.4084 73.2907 58.607C73.49 58.8056 73.602 59.075 73.602 59.3558C73.602 59.6367 73.49 59.906 73.2907 60.1046C73.0913 60.3032 72.8209 60.4148 72.539 60.4148Z" fill="#E6E6E6"/>
<path d="M32.9202 49.1766C35.411 49.1766 37.4302 47.1652 37.4302 44.684C37.4302 42.2028 35.411 40.1914 32.9202 40.1914C30.4294 40.1914 28.4102 42.2028 28.4102 44.684C28.4102 47.1652 30.4294 49.1766 32.9202 49.1766Z" fill="#E6E6E6"/>
<path d="M32.9202 62.1258C35.411 62.1258 37.4302 60.1144 37.4302 57.6332C37.4302 55.152 35.411 53.1406 32.9202 53.1406C30.4294 53.1406 28.4102 55.152 28.4102 57.6332C28.4102 60.1144 30.4294 62.1258 32.9202 62.1258Z" fill="#E6E6E6"/>
<path d="M68.1539 69.7898H42.9107C42.6288 69.7898 42.3584 69.6782 42.159 69.4796C41.9597 69.281 41.8477 69.0117 41.8477 68.7308C41.8477 68.45 41.9597 68.1806 42.159 67.982C42.3584 67.7834 42.6288 67.6719 42.9107 67.6719H68.1539C68.4358 67.6719 68.7062 67.7834 68.9055 67.982C69.1049 68.1806 69.2169 68.45 69.2169 68.7308C69.2169 69.0117 69.1049 69.281 68.9055 69.4796C68.7062 69.6782 68.4358 69.7898 68.1539 69.7898Z" fill="#E6E6E6"/>
<path d="M72.539 73.364H42.9107C42.6288 73.364 42.3584 73.2524 42.159 73.0538C41.9597 72.8552 41.8477 72.5859 41.8477 72.305C41.8477 72.0242 41.9597 71.7548 42.159 71.5563C42.3584 71.3577 42.6288 71.2461 42.9107 71.2461H72.539C72.8209 71.2461 73.0913 71.3577 73.2907 71.5563C73.49 71.7548 73.602 72.0242 73.602 72.305C73.602 72.5859 73.49 72.8552 73.2907 73.0538C73.0913 73.2524 72.8209 73.364 72.539 73.364Z" fill="#E6E6E6"/>
<path d="M32.9202 75.075C35.411 75.075 37.4302 73.0636 37.4302 70.5824C37.4302 68.1012 35.411 66.0898 32.9202 66.0898C30.4294 66.0898 28.4102 68.1012 28.4102 70.5824C28.4102 73.0636 30.4294 75.075 32.9202 75.075Z" fill="#E6E6E6"/>
</g>
<defs>
<clipPath id="clip0_174_3607">
<rect width="100" height="93" fill="white"/>
</clipPath>
</defs>
</svg>
