<svg width="24" height="24" viewBox="0 0 24 24" fill="none" xmlns="http://www.w3.org/2000/svg">
<path d="M10.3668 11.9832L14.6168 16.2332C14.7778 16.3944 14.8555 16.5889 14.85 16.8167C14.8445 17.0444 14.7612 17.2388 14.6 17.4C14.4389 17.5611 14.2416 17.6417 14.0083 17.6417C13.775 17.6417 13.5778 17.5611 13.4168 17.4L8.5833 12.5667C8.49446 12.4777 8.43196 12.3861 8.3958 12.2917C8.3598 12.1972 8.3418 12.0944 8.3418 11.9832C8.3418 11.8722 8.3598 11.7695 8.3958 11.675C8.43196 11.5805 8.49446 11.4888 8.5833 11.4L13.4333 6.54998C13.5945 6.38881 13.7917 6.30823 14.025 6.30823C14.2584 6.30823 14.4556 6.38881 14.6168 6.54998C14.7778 6.71114 14.8583 6.90839 14.8583 7.14173C14.8583 7.37506 14.7778 7.57223 14.6168 7.73323L10.3668 11.9832Z" fill="#3E0D0C"/>
</svg>
