<svg width="32" height="32" viewBox="0 0 32 32" fill="none" xmlns="http://www.w3.org/2000/svg">
<path d="M14.1508 16.0125L20.5258 22.3875C20.7673 22.6292 20.8839 22.921 20.8757 23.2628C20.8674 23.6042 20.7424 23.8959 20.5007 24.1376C20.2589 24.3794 19.963 24.5002 19.613 24.5002C19.263 24.5002 18.9673 24.3794 18.7258 24.1376L11.4755 16.8878C11.3423 16.7543 11.2485 16.6167 11.1943 16.4753C11.1403 16.3335 11.1133 16.1792 11.1133 16.0125C11.1133 15.846 11.1403 15.6919 11.1943 15.5501C11.2485 15.4084 11.3423 15.2709 11.4755 15.1376L18.7505 7.86262C18.9923 7.62087 19.2882 7.5 19.6382 7.5C19.9882 7.5 20.284 7.62087 20.5258 7.86262C20.7673 8.10437 20.888 8.40025 20.888 8.75025C20.888 9.10025 20.7673 9.396 20.5258 9.6375L14.1508 16.0125Z" fill="#E74C21"/>
</svg>
