<svg width="24" height="24" viewBox="0 0 24 24" fill="none" xmlns="http://www.w3.org/2000/svg">
<path d="M11.9999 19.75C11.7832 19.75 11.5707 19.7125 11.3624 19.6375C11.1541 19.5625 10.9582 19.4417 10.7749 19.275L9.2999 17.925C7.48324 16.3083 5.87907 14.7292 4.4874 13.1875C3.09574 11.6458 2.3999 9.96667 2.3999 8.15C2.3999 6.683 2.89865 5.45792 3.89615 4.47475C4.89365 3.49158 6.13657 3 7.6249 3C8.47824 3 9.28324 3.17917 10.0399 3.5375C10.7966 3.89583 11.4499 4.40833 11.9999 5.075C12.5832 4.40833 13.2471 3.89583 13.9914 3.5375C14.7357 3.17917 15.5276 3 16.3669 3C17.8556 3 19.0999 3.49158 20.0999 4.47475C21.0999 5.45792 21.5999 6.683 21.5999 8.15C21.5999 9.96667 20.9041 11.6458 19.5124 13.1875C18.1207 14.7292 16.5166 16.3083 14.6999 17.925L13.2249 19.275C13.0416 19.4417 12.8457 19.5625 12.6374 19.6375C12.4291 19.7125 12.2166 19.75 11.9999 19.75ZM11.1499 6.95C10.7499 6.26667 10.2499 5.7375 9.6499 5.3625C9.0499 4.9875 8.3749 4.8 7.6249 4.8C6.6464 4.8 5.8309 5.11667 5.1784 5.75C4.52607 6.38333 4.1999 7.18658 4.1999 8.15975C4.1999 9.00325 4.4999 9.89167 5.0999 10.825C5.6999 11.7583 6.41657 12.6708 7.2499 13.5625C8.08324 14.4542 8.94157 15.2833 9.8249 16.05C10.7082 16.8167 11.4332 17.45 11.9999 17.95C12.5666 17.45 13.2916 16.8167 14.1749 16.05C15.0582 15.2833 15.9166 14.4542 16.7499 13.5625C17.5832 12.6708 18.2999 11.7583 18.8999 10.825C19.4999 9.89167 19.7999 9.00325 19.7999 8.15975C19.7999 7.18658 19.4737 6.38333 18.8214 5.75C18.1689 5.11667 17.3534 4.8 16.3749 4.8C15.6249 4.8 14.9457 4.9875 14.3374 5.3625C13.7291 5.7375 13.2249 6.26667 12.8249 6.95C12.7416 7.11667 12.6245 7.2375 12.4737 7.3125C12.3228 7.3875 12.1645 7.425 11.9987 7.425C11.8328 7.425 11.6707 7.3875 11.5124 7.3125C11.3541 7.2375 11.2332 7.11667 11.1499 6.95Z" fill="#3E0D0C"/>
</svg>
