<svg width="24" height="24" viewBox="0 0 24 24" fill="none" xmlns="http://www.w3.org/2000/svg">
<g clip-path="url(#clip0_2736_4294)">
<path d="M11.4996 18.1137L7.48705 19.836C6.87798 20.0965 6.29933 20.0466 5.75108 19.6864C5.20283 19.3262 4.92871 18.8195 4.92871 18.1663V5.82746C4.92871 5.31678 5.10562 4.88454 5.45943 4.53072C5.81325 4.17691 6.2455 4 6.75617 4H16.243C16.7537 4 17.1859 4.17691 17.5397 4.53072C17.8935 4.88454 18.0704 5.31678 18.0704 5.82746V18.1663C18.0704 18.8195 17.7963 19.3262 17.2481 19.6864C16.6998 20.0466 16.1212 20.0965 15.5121 19.836L11.4996 18.1137ZM11.4996 16.4341L16.1166 18.4228C16.2204 18.4681 16.3192 18.4584 16.4131 18.3937C16.5071 18.3289 16.5541 18.2413 16.5541 18.1312V5.82746C16.5541 5.74962 16.5217 5.67835 16.4568 5.61365C16.3921 5.54879 16.3208 5.51635 16.243 5.51635H6.75617C6.67833 5.51635 6.60706 5.54879 6.54236 5.61365C6.4775 5.67835 6.44506 5.74962 6.44506 5.82746V18.1312C6.44506 18.2413 6.49207 18.3289 6.58608 18.3937C6.67993 18.4584 6.77875 18.4681 6.88253 18.4228L11.4996 16.4341ZM11.4996 5.51635H6.44506H16.5541H11.4996Z" fill="#E74C21"/>
</g>
<defs>
<clipPath id="clip0_2736_4294">
<rect width="24" height="24" fill="white"/>
</clipPath>
</defs>
</svg>
