<svg width="85" height="88" viewBox="0 0 85 88" fill="none" xmlns="http://www.w3.org/2000/svg">
<path d="M47.1451 0.774308L44.0852 2.43744L6.38551 22.9276L3.32552 24.5907C1.84072 25.3998 0.73877 26.7627 0.261421 28.3801C-0.215928 29.9976 -0.0296901 31.7377 0.779278 33.2185L28.8533 84.4727C29.6656 85.9517 31.0337 87.0494 32.6575 87.5249C34.2813 88.0004 36.0281 87.8149 37.5147 87.0091L37.5226 87.0048L81.3264 63.197L81.3343 63.1927C82.8191 62.3835 83.9211 61.0207 84.3984 59.4032C84.8758 57.7858 84.6895 56.0457 83.8806 54.5648L55.8065 3.31072C54.9942 1.83166 53.6261 0.733973 52.0023 0.258468C50.3786 -0.217037 48.6318 -0.0315243 47.1451 0.774308Z" fill="#F2F2F2"/>
<path d="M48.0244 2.38342L44.4 4.35328L7.82898 24.23L4.20469 26.1998C3.14733 26.776 2.3626 27.7465 2.02267 28.8984C1.68273 30.0502 1.81536 31.2894 2.39144 32.3439L30.4655 83.598C31.0439 84.6513 32.0182 85.433 33.1745 85.7716C34.3309 86.1102 35.5748 85.9781 36.6335 85.4043L36.6414 85.4L80.4452 61.5922L80.4531 61.5879C81.5105 61.0116 82.2952 60.0411 82.6351 58.8893C82.975 57.7375 82.8424 56.4983 82.2663 55.4438L54.1923 4.18967C53.6138 3.13641 52.6396 2.35472 51.4833 2.0161C50.327 1.67748 49.083 1.80958 48.0244 2.38342Z" fill="white"/>
<path d="M48.6301 18.2932L32.2929 27.1726C32.0454 27.3071 31.7544 27.3382 31.4839 27.259C31.2134 27.1798 30.9856 26.9968 30.8506 26.7502C30.7155 26.5037 30.6843 26.2138 30.7639 25.9444C30.8434 25.6749 31.0271 25.448 31.2746 25.3134L47.6117 16.4341C47.8592 16.2995 48.1502 16.2685 48.4207 16.3477C48.6912 16.4269 48.9191 16.6099 49.0541 16.8564C49.1891 17.103 49.2203 17.3928 49.1408 17.6623C49.0613 17.9317 48.8776 18.1587 48.6301 18.2932Z" fill="#F2F2F2"/>
<path d="M54.1963 19.3362L34.0097 30.3077C33.7622 30.4423 33.4712 30.4733 33.2007 30.3941C32.9302 30.3149 32.7024 30.1319 32.5674 29.8854C32.4323 29.6388 32.4011 29.349 32.4807 29.0795C32.5602 28.8101 32.7439 28.5831 32.9914 28.4486L53.1779 17.477C53.3005 17.4104 53.435 17.3685 53.5738 17.3537C53.7126 17.3389 53.853 17.3514 53.9869 17.3906C54.1209 17.4299 54.2457 17.495 54.3544 17.5823C54.4631 17.6696 54.5534 17.7773 54.6203 17.8994C54.6871 18.0215 54.7292 18.1555 54.7441 18.2937C54.759 18.432 54.7464 18.5718 54.707 18.7053C54.6676 18.8387 54.6022 18.9631 54.5146 19.0713C54.427 19.1796 54.3188 19.2696 54.1963 19.3362Z" fill="#F2F2F2"/>
<path d="M25.5753 23.476L10.5134 31.6623C10.3948 31.7268 10.3068 31.8355 10.2687 31.9646C10.2306 32.0937 10.2456 32.2326 10.3102 32.3507L16.724 44.0601C16.7887 44.1782 16.8979 44.2659 17.0275 44.3039C17.1571 44.3418 17.2965 44.3269 17.4151 44.2625L32.477 36.0762C32.5955 36.0118 32.6835 35.903 32.7216 35.7739C32.7597 35.6448 32.7448 35.5059 32.6801 35.3878L26.2664 23.6784C26.2017 23.5603 26.0925 23.4726 25.9629 23.4347C25.8333 23.3967 25.6939 23.4116 25.5753 23.476Z" fill="#F2F2F2"/>
<path d="M56.7354 33.1487L34.5761 45.1925C34.4536 45.2591 34.3191 45.301 34.1803 45.3158C34.0415 45.3306 33.9011 45.3181 33.7671 45.2788C33.6332 45.2396 33.5083 45.1745 33.3997 45.0872C33.291 44.9999 33.2006 44.8921 33.1338 44.7701C33.0669 44.648 33.0248 44.514 33.01 44.3757C32.9951 44.2375 33.0077 44.0976 33.0471 43.9642C33.0864 43.8308 33.1518 43.7064 33.2394 43.5982C33.3271 43.4899 33.4352 43.3999 33.5578 43.3333L55.7171 31.2895C55.9646 31.155 56.2556 31.1239 56.5261 31.2031C56.7966 31.2824 57.0244 31.4654 57.1594 31.7119C57.2945 31.9584 57.3257 32.2483 57.2462 32.5178C57.1666 32.7872 56.9829 33.0142 56.7354 33.1487Z" fill="#F2F2F2"/>
<path d="M62.3036 34.1955L36.2949 48.3315C36.0474 48.466 35.7564 48.4971 35.4859 48.4179C35.2154 48.3387 34.9876 48.1557 34.8525 47.9091C34.7175 47.6626 34.6863 47.3727 34.7658 47.1033C34.8453 46.8338 35.0291 46.6069 35.2765 46.4724L61.2852 32.3364C61.5327 32.2019 61.8237 32.1708 62.0942 32.25C62.3647 32.3292 62.5926 32.5122 62.7276 32.7588C62.8626 33.0053 62.8938 33.2952 62.8143 33.5646C62.7348 33.8341 62.5511 34.061 62.3036 34.1955Z" fill="#F2F2F2"/>
<path d="M26.137 55.0555C28.6278 55.0555 30.647 53.0441 30.647 50.5629C30.647 48.0817 28.6278 46.0703 26.137 46.0703C23.6462 46.0703 21.627 48.0817 21.627 50.5629C21.627 53.0441 23.6462 55.0555 26.137 55.0555Z" fill="#F2F2F2"/>
</svg>
