<svg width="808" height="240" viewBox="0 0 808 240" fill="none" xmlns="http://www.w3.org/2000/svg">
<mask id="path-1-inside-1_1158_6994" fill="white">
<path d="M808 74C808 90.5685 794.569 104 778 104H706C689.431 104 676 117.431 676 134V210C676 226.569 662.569 240 646 240H30C13.4315 240 0 226.569 0 210V30C0 13.4315 13.4315 0 30 0H778C794.569 0 808 13.4315 808 30V74Z"/>
</mask>
<path d="M808 74C808 90.5685 794.569 104 778 104H706C689.431 104 676 117.431 676 134V210C676 226.569 662.569 240 646 240H30C13.4315 240 0 226.569 0 210V30C0 13.4315 13.4315 0 30 0H778C794.569 0 808 13.4315 808 30V74Z" fill="url(#paint0_linear_1158_6994)"/>
<path d="M778 104V103H706V104V105H778V104ZM676 134H675V210H676H677V134H676ZM646 240V239H30V240V241H646V240ZM0 210H1V30H0H-1V210H0ZM30 0V1H778V0V-1H30V0ZM808 30H807V74H808H809V30H808ZM778 0V1C794.016 1 807 13.9837 807 30H808H809C809 12.8792 795.121 -1 778 -1V0ZM0 30H1C1 13.9837 13.9837 1 30 1V0V-1C12.8792 -1 -1 12.8792 -1 30H0ZM30 240V239C13.9837 239 1 226.016 1 210H0H-1C-1 227.121 12.8792 241 30 241V240ZM676 210H675C675 226.016 662.016 239 646 239V240V241C663.121 241 677 227.121 677 210H676ZM706 104V103C688.879 103 675 116.879 675 134H676H677C677 117.984 689.984 105 706 105V104ZM778 104V105C795.121 105 809 91.1208 809 74H808H807C807 90.0163 794.016 103 778 103V104Z" fill="#FCE6D8" mask="url(#path-1-inside-1_1158_6994)"/>
<defs>
<linearGradient id="paint0_linear_1158_6994" x1="388.165" y1="1.52542" x2="388.165" y2="241.525" gradientUnits="userSpaceOnUse">
<stop stop-color="white"/>
<stop offset="1" stop-color="#FEF4EE"/>
</linearGradient>
</defs>
</svg>
