<svg width="18" height="18" viewBox="0 0 18 18" fill="none" xmlns="http://www.w3.org/2000/svg">
<path d="M9 0C13.9706 0 18 4.02944 18 9C18 13.9706 13.9706 18 9 18C4.02944 18 0 13.9706 0 9C2.57711e-07 4.02944 4.02944 2.57702e-07 9 0ZM13.5146 5.23828C13.2962 5.23828 13.1096 5.3154 12.9561 5.46875L7.51172 10.9131L5.05176 8.45312C4.90516 8.30681 4.72088 8.23206 4.49902 8.22852C4.2772 8.22516 4.08908 8.29977 3.93555 8.45312C3.78222 8.60665 3.70605 8.79327 3.70605 9.01172C3.70613 9.22995 3.78241 9.41592 3.93555 9.56934L6.8418 12.4746C7.03327 12.6659 7.25654 12.7617 7.51172 12.7617C7.76683 12.7617 7.99021 12.6659 8.18164 12.4746L14.0723 6.58398C14.2186 6.43736 14.2933 6.25317 14.2969 6.03125C14.3002 5.80956 14.2255 5.62222 14.0723 5.46875C13.9188 5.31548 13.733 5.23836 13.5146 5.23828Z" fill="#0E1B5F"/>
</svg>
