<svg width="24" height="24" viewBox="0 0 24 24" fill="none" xmlns="http://www.w3.org/2000/svg">
<path d="M10.3668 11.9836L14.6168 16.2336C14.7778 16.3948 14.8555 16.5893 14.85 16.8171C14.8445 17.0448 14.7612 17.2392 14.6 17.4003C14.4389 17.5615 14.2416 17.6421 14.0083 17.6421C13.775 17.6421 13.5778 17.5615 13.4168 17.4003L8.5833 12.5671C8.49446 12.4781 8.43196 12.3864 8.3958 12.2921C8.3598 12.1976 8.3418 12.0948 8.3418 11.9836C8.3418 11.8726 8.3598 11.7698 8.3958 11.6753C8.43196 11.5808 8.49446 11.4892 8.5833 11.4003L13.4333 6.55034C13.5945 6.38918 13.7917 6.30859 14.025 6.30859C14.2584 6.30859 14.4556 6.38918 14.6168 6.55034C14.7778 6.71151 14.8583 6.90876 14.8583 7.14209C14.8583 7.37543 14.7778 7.57259 14.6168 7.73359L10.3668 11.9836Z" fill="#3E0D0C"/>
</svg>
