<svg width="23" height="22" viewBox="0 0 23 22" fill="none" xmlns="http://www.w3.org/2000/svg">
<path d="M14.029 20.3183C14.0638 20.3322 14.0951 20.3391 14.1227 20.3391C14.1505 20.3391 14.1818 20.3322 14.2167 20.3183L20.5894 18.3453C20.534 18.0995 20.4194 17.911 20.2457 17.7798C20.072 17.6485 19.8755 17.5829 19.6561 17.5829H14.3507C13.8781 17.5829 13.4764 17.5648 13.1458 17.5287C12.8152 17.4926 12.4756 17.4134 12.1269 17.2912L10.4269 16.7349C10.2084 16.6654 10.0515 16.5265 9.95594 16.3183C9.86024 16.11 9.84715 15.8978 9.91667 15.6819C9.986 15.4658 10.1203 15.3074 10.3197 15.2068C10.519 15.1061 10.7284 15.0905 10.9477 15.16L12.3561 15.6537C12.684 15.7579 13.0507 15.8318 13.4562 15.8755C13.8617 15.9192 14.3873 15.9467 15.033 15.9579H15.3228C15.3228 15.6897 15.2624 15.4584 15.1416 15.264C15.0208 15.0695 14.8617 14.9383 14.6644 14.8702L8.37915 12.5619C8.3582 12.555 8.33906 12.5499 8.32173 12.5464C8.3044 12.5428 8.28535 12.541 8.26458 12.541H6.26042V18.1245L14.029 20.3183ZM13.6062 21.91L6.26042 19.8037C6.13674 20.2522 5.88531 20.6122 5.50615 20.8838C5.12698 21.1553 4.7256 21.2911 4.30202 21.2911H2.80215C2.26355 21.2911 1.8025 21.0994 1.419 20.7159C1.0355 20.3324 0.84375 19.8713 0.84375 19.3327V12.8744C0.84375 12.336 1.0355 11.875 1.419 11.4915C1.8025 11.108 2.26355 10.9163 2.80215 10.9163H8.2524C8.36597 10.9163 8.48107 10.9288 8.59771 10.9537C8.71453 10.9788 8.82286 11.0079 8.92271 11.0411L15.2353 13.3663C15.7269 13.5481 16.1353 13.8699 16.4603 14.3318C16.7853 14.7936 16.9478 15.3357 16.9478 15.9579H19.6561C20.4339 15.9579 21.0676 16.2089 21.5571 16.711C22.0468 17.213 22.2916 17.8647 22.2916 18.6662C22.2916 18.9731 22.2103 19.2203 22.0478 19.4077C21.8853 19.5953 21.6395 19.7439 21.3104 19.8535L14.7375 21.8932C14.5597 21.9515 14.3728 21.9824 14.1769 21.9858C13.9812 21.9894 13.7909 21.9641 13.6062 21.91ZM2.46875 19.3327C2.46875 19.43 2.49999 19.5099 2.56246 19.5724C2.62493 19.6349 2.70483 19.6661 2.80215 19.6661H4.30202C4.39916 19.6661 4.47906 19.6401 4.54171 19.5881C4.60418 19.5359 4.63542 19.4508 4.63542 19.3327V12.541H2.80215C2.70483 12.541 2.62493 12.5723 2.56246 12.635C2.49999 12.6975 2.46875 12.7773 2.46875 12.8744V19.3327ZM13.8939 0.695312C14.091 0.695312 14.2847 0.725194 14.4748 0.784958C14.6651 0.844722 14.8492 0.936355 15.027 1.05985L20.3811 4.88077C20.6422 5.05844 20.8453 5.28865 20.9905 5.5714C21.1357 5.85397 21.2083 6.15495 21.2083 6.47435V12.7704C21.2083 13.0006 21.1303 13.1935 20.9745 13.3492C20.8187 13.505 20.6257 13.5829 20.3955 13.5829C20.1651 13.5829 19.9722 13.505 19.8167 13.3492C19.6611 13.1935 19.5833 13.0006 19.5833 12.7704V6.44727C19.5833 6.39184 19.5711 6.33975 19.5467 6.291C19.5225 6.24243 19.486 6.20081 19.4373 6.16615L14.0832 2.42648C14.0277 2.38477 13.9653 2.36392 13.8958 2.36392C13.8262 2.36392 13.7638 2.38477 13.7083 2.42648L8.35396 6.16615C8.30539 6.20081 8.26892 6.24243 8.24454 6.291C8.22035 6.33975 8.20825 6.39184 8.20825 6.44727V7.72858C8.20825 7.95879 8.13034 8.15181 7.97452 8.30763C7.8187 8.46326 7.62569 8.54108 7.39548 8.54108C7.16509 8.54108 6.97217 8.46326 6.81671 8.30763C6.66107 8.15181 6.58325 7.95879 6.58325 7.72858V6.47435C6.58325 6.15495 6.65583 5.85397 6.801 5.5714C6.94617 5.28865 7.14929 5.05844 7.41038 4.88077L12.7645 1.05985C12.9423 0.936355 13.1257 0.844722 13.3145 0.784958C13.5036 0.725194 13.6967 0.695312 13.8939 0.695312ZM12.8124 6.90579C12.943 6.90579 13.0572 6.85677 13.155 6.75873C13.2531 6.66087 13.3021 6.54667 13.3021 6.41613C13.3021 6.28558 13.2531 6.17138 13.155 6.07352C13.0572 5.97548 12.943 5.92646 12.8124 5.92646C12.6819 5.92646 12.5677 5.97548 12.4698 6.07352C12.3718 6.17138 12.3228 6.28558 12.3228 6.41613C12.3228 6.54667 12.3718 6.66087 12.4698 6.75873C12.5677 6.85677 12.6819 6.90579 12.8124 6.90579ZM14.9791 6.90579C15.1096 6.90579 15.2238 6.85677 15.3217 6.75873C15.4197 6.66087 15.4688 6.54667 15.4688 6.41613C15.4688 6.28558 15.4197 6.17138 15.3217 6.07352C15.2238 5.97548 15.1096 5.92646 14.9791 5.92646C14.8485 5.92646 14.7343 5.97548 14.6365 6.07352C14.5384 6.17138 14.4894 6.28558 14.4894 6.41613C14.4894 6.54667 14.5384 6.66087 14.6365 6.75873C14.7343 6.85677 14.8485 6.90579 14.9791 6.90579ZM12.8124 9.07246C12.943 9.07246 13.0572 9.02344 13.155 8.9254C13.2531 8.82753 13.3021 8.71333 13.3021 8.58279C13.3021 8.45225 13.2531 8.33805 13.155 8.24019C13.0572 8.14215 12.943 8.09313 12.8124 8.09313C12.6819 8.09313 12.5677 8.14215 12.4698 8.24019C12.3718 8.33805 12.3228 8.45225 12.3228 8.58279C12.3228 8.71333 12.3718 8.82753 12.4698 8.9254C12.5677 9.02344 12.6819 9.07246 12.8124 9.07246ZM14.9791 9.07246C15.1096 9.07246 15.2238 9.02344 15.3217 8.9254C15.4197 8.82753 15.4688 8.71333 15.4688 8.58279C15.4688 8.45225 15.4197 8.33805 15.3217 8.24019C15.2238 8.14215 15.1096 8.09313 14.9791 8.09313C14.8485 8.09313 14.7343 8.14215 14.6365 8.24019C14.5384 8.33805 14.4894 8.45225 14.4894 8.58279C14.4894 8.71333 14.5384 8.82753 14.6365 8.9254C14.7343 9.02344 14.8485 9.07246 14.9791 9.07246Z" fill="#E74C21"/>
</svg>
