<svg width="16" height="15" viewBox="0 0 16 15" fill="none" xmlns="http://www.w3.org/2000/svg">
<path d="M2.37926 14.8976C1.80742 14.8976 1.32342 14.6995 0.927258 14.3033C0.531091 13.9072 0.333008 13.4232 0.333008 12.8513V0.978593C0.333008 0.552926 0.524341 0.257093 0.907008 0.091093C1.28967 -0.0750737 1.62526 -0.0139063 1.91376 0.274594L3.77926 2.14009L2.71776 3.20159L3.30226 3.78609L4.36376 2.72459L6.73301 5.09384L5.67151 6.15534L6.25601 6.73984L7.31751 5.67834L9.72526 8.08609L8.66376 9.14759L9.24826 9.73209L10.3098 8.67059L12.679 11.0398L11.6175 12.1013L12.2023 12.6861L13.2638 11.6246L14.9753 13.3361C15.2573 13.6181 15.3153 13.9488 15.1493 14.3283C14.9833 14.7078 14.6906 14.8976 14.2713 14.8976H2.37926ZM2.87151 12.6668H10.8638L2.56376 4.36684V12.3591C2.56376 12.4489 2.59259 12.5227 2.65026 12.5803C2.70792 12.638 2.78167 12.6668 2.87151 12.6668Z" fill="#F3A37E"/>
</svg>

