<svg width="19" height="21" viewBox="0 0 19 21" fill="none" xmlns="http://www.w3.org/2000/svg">
<path d="M3.16732 20.291C2.41043 20.291 1.76982 20.0288 1.24548 19.5045C0.721151 18.9802 0.458984 18.3396 0.458984 17.5827V15.8537C0.458984 15.5743 0.552422 15.3413 0.739297 15.1546C0.925991 14.9678 1.159 14.8743 1.43832 14.8743H3.70898V0.451375C3.70898 0.338889 3.75448 0.263597 3.84548 0.225499C3.93648 0.187222 4.0236 0.202839 4.10684 0.272353L4.90282 0.932645C4.99725 1.01317 5.09935 1.05344 5.20913 1.05344C5.31873 1.05344 5.42074 1.01317 5.51517 0.932645L6.42355 0.191103C6.51798 0.110575 6.62008 0.0703125 6.72986 0.0703125C6.83964 0.0703125 6.94174 0.110575 7.03617 0.191103L7.94455 0.932645C8.03898 1.01317 8.14099 1.05344 8.25059 1.05344C8.36037 1.05344 8.46247 1.01317 8.5569 0.932645L9.46528 0.191103C9.55971 0.110575 9.66181 0.0703125 9.77159 0.0703125C9.88119 0.0703125 9.9832 0.110575 10.0776 0.191103L10.986 0.932645C11.0804 1.01317 11.1825 1.05344 11.2923 1.05344C11.4021 1.05344 11.5042 1.01317 11.5986 0.932645L12.507 0.191103C12.6014 0.110575 12.7034 0.0703125 12.813 0.0703125C12.9228 0.0703125 13.0249 0.110575 13.1194 0.191103L14.0277 0.932645C14.1222 1.01317 14.2243 1.05344 14.334 1.05344C14.4436 1.05344 14.5457 1.01317 14.6401 0.932645L15.5485 0.191103C15.6429 0.110575 15.745 0.0703125 15.8548 0.0703125C15.9646 0.0703125 16.0667 0.110575 16.1611 0.191103L17.0695 0.932645C17.1639 1.01317 17.2659 1.05344 17.3755 1.05344C17.4853 1.05344 17.5874 1.01317 17.6818 0.932645L18.4778 0.272353C18.561 0.202839 18.6482 0.187222 18.7392 0.225499C18.8302 0.263597 18.8757 0.338889 18.8757 0.451375V17.5827C18.8757 18.3396 18.6135 18.9802 18.0892 19.5045C17.5648 20.0288 16.9242 20.291 16.1673 20.291H3.16732ZM16.1673 18.666C16.4743 18.666 16.7316 18.5622 16.9392 18.3545C17.1468 18.1469 17.2507 17.8896 17.2507 17.5827V2.416H5.33398V14.8743H14.1049C14.3841 14.8743 14.617 14.9678 14.8037 15.1546C14.9905 15.3413 15.084 15.5743 15.084 15.8537V17.5827C15.084 17.8896 15.1878 18.1469 15.3954 18.3545C15.6031 18.5622 15.8604 18.666 16.1673 18.666ZM7.43809 4.8535H11.9591C12.1895 4.8535 12.3825 4.93132 12.5382 5.08696C12.6936 5.24242 12.7713 5.43543 12.7713 5.666C12.7713 5.89657 12.6936 6.08958 12.5382 6.24504C12.3825 6.40068 12.1895 6.4785 11.9591 6.4785H7.43809C7.20752 6.4785 7.0145 6.40068 6.85905 6.24504C6.70341 6.08958 6.62559 5.89657 6.62559 5.666C6.62559 5.43543 6.70341 5.24242 6.85905 5.08696C7.0145 4.93132 7.20752 4.8535 7.43809 4.8535ZM7.43809 8.1035H11.9591C12.1895 8.1035 12.3825 8.18132 12.5382 8.33696C12.6936 8.49242 12.7713 8.68543 12.7713 8.916C12.7713 9.14657 12.6936 9.33958 12.5382 9.49504C12.3825 9.65068 12.1895 9.7285 11.9591 9.7285H7.43809C7.20752 9.7285 7.0145 9.65068 6.85905 9.49504C6.70341 9.33958 6.62559 9.14657 6.62559 8.916C6.62559 8.68543 6.70341 8.49242 6.85905 8.33696C7.0145 8.18132 7.20752 8.1035 7.43809 8.1035ZM15.0214 6.62421C14.7562 6.62421 14.5301 6.53086 14.3433 6.34417C14.1566 6.15729 14.0632 5.93124 14.0632 5.666C14.0632 5.40076 14.1566 5.17471 14.3433 4.98783C14.5301 4.80114 14.7562 4.70779 15.0214 4.70779C15.2867 4.70779 15.5127 4.80114 15.6996 4.98783C15.8865 5.17471 15.9799 5.40076 15.9799 5.666C15.9799 5.93124 15.8865 6.15729 15.6996 6.34417C15.5127 6.53086 15.2867 6.62421 15.0214 6.62421ZM15.0214 9.87421C14.7562 9.87421 14.5301 9.78086 14.3433 9.59417C14.1566 9.40729 14.0632 9.18124 14.0632 8.916C14.0632 8.65076 14.1566 8.42471 14.3433 8.23783C14.5301 8.05114 14.7562 7.95779 15.0214 7.95779C15.2867 7.95779 15.5127 8.05114 15.6996 8.23783C15.8865 8.42471 15.9799 8.65076 15.9799 8.916C15.9799 9.18124 15.8865 9.40729 15.6996 9.59417C15.5127 9.78086 15.2867 9.87421 15.0214 9.87421ZM3.16732 18.666H13.459V16.4993H2.08398V17.5827C2.08398 17.8896 2.1878 18.1469 2.39544 18.3545C2.60308 18.5622 2.86037 18.666 3.16732 18.666Z" fill="#F3A37E"/>
</svg>

