<svg width="21" height="21" viewBox="0 0 21 21" fill="none" xmlns="http://www.w3.org/2000/svg">
<path d="M5.70016 7.00454L9.16276 1.32977C9.26406 1.16312 9.38819 1.04431 9.53516 0.973354C9.68195 0.902576 9.83696 0.867188 10.0002 0.867188C10.1634 0.867188 10.3184 0.902576 10.4652 0.973354C10.6122 1.04431 10.7363 1.16312 10.8376 1.32977L14.3002 7.00454C14.4015 7.16776 14.4521 7.33911 14.4521 7.51858C14.4521 7.69824 14.4105 7.86236 14.3273 8.01096C14.2439 8.15955 14.1293 8.27827 13.9836 8.3671C13.8377 8.45594 13.6675 8.50035 13.4731 8.50035H6.52728C6.3321 8.50035 6.1613 8.45549 6.01487 8.36575C5.86844 8.27601 5.75451 8.15775 5.67308 8.01096C5.58984 7.86453 5.54822 7.70185 5.54822 7.52292C5.54822 7.34399 5.59887 7.17119 5.70016 7.00454ZM15.9585 20.417C14.7154 20.417 13.6616 19.9848 12.7971 19.1203C11.9326 18.2558 11.5003 17.202 11.5003 15.9588C11.5003 14.7157 11.9326 13.6619 12.7971 12.7974C13.6616 11.9329 14.7154 11.5006 15.9585 11.5006C17.2016 11.5006 18.2554 11.9329 19.1199 12.7974C19.9844 13.6619 20.4167 14.7157 20.4167 15.9588C20.4167 17.202 19.9844 18.2558 19.1199 19.1203C18.2554 19.9848 17.2016 20.417 15.9585 20.417ZM0.666992 18.896V13.0189C0.666992 12.7414 0.760791 12.5092 0.948388 12.3224C1.13617 12.1357 1.36881 12.0423 1.64633 12.0423H7.52341C7.80092 12.0423 8.03312 12.1361 8.21999 12.3237C8.40669 12.5115 8.50003 12.7441 8.50003 13.0216V18.8987C8.50003 19.1762 8.40624 19.4084 8.21864 19.5953C8.03086 19.782 7.79821 19.8754 7.5207 19.8754H1.64362C1.3661 19.8754 1.13391 19.7816 0.947034 19.594C0.760339 19.4062 0.666992 19.1735 0.666992 18.896ZM15.9582 18.7923C16.7514 18.7923 17.422 18.5184 17.97 17.9706C18.518 17.4228 18.792 16.7523 18.792 15.9591C18.792 15.1659 18.5181 14.4953 17.9703 13.9474C17.4225 13.3994 16.752 13.1254 15.9588 13.1254C15.1656 13.1254 14.495 13.3993 13.947 13.9471C13.399 14.4949 13.1251 15.1654 13.1251 15.9586C13.1251 16.7517 13.399 17.4223 13.9468 17.9703C14.4946 18.5183 15.1651 18.7923 15.9582 18.7923ZM2.29172 18.2506H6.8753V13.667H2.29172V18.2506ZM7.65856 6.87562H12.3418L10.0002 3.10887L7.65856 6.87562Z" fill="#F3A37E"/>
</svg>
