<svg width="50" height="44" viewBox="0 0 50 44" fill="none" xmlns="http://www.w3.org/2000/svg">
<path d="M16.6399 36.2438L8.20064 24.4283L0 36.2438H8.31995H16.6399Z" fill="#0E1B5F"/>
<path d="M33.1929 11.6343C28.0228 4.56672 25.1553 0 25.1553 0L8.93015 23.3773C12.2953 21.0214 14.6848 24.5733 14.6848 24.5733L28.1097 44C28.1097 44 34.3659 37.3311 32.5412 34.7941C30.7165 32.257 20.5066 17.9044 20.5066 17.9044L23.5478 13.0478C23.5478 13.0478 29.891 19.318 26.8497 22.6524C26.8497 22.6524 38.363 18.7018 33.1929 11.6343Z" fill="#0E1B5F"/>
<path d="M40.3615 22.6524C37.2768 18.3165 27.3277 23.4498 27.3277 23.4498C34.3225 23.2685 35.1914 33.888 40.9698 36.2438L49.8762 36.0264L40.3615 22.6524Z" fill="#0E1B5F"/>
</svg>
