<svg width="24" height="24" viewBox="0 0 24 24" fill="none" xmlns="http://www.w3.org/2000/svg">
<path d="M10.3668 11.9831L14.6168 16.2331C14.7778 16.3943 14.8555 16.5888 14.85 16.8166C14.8445 17.0443 14.7612 17.2387 14.6 17.3999C14.4389 17.561 14.2416 17.6416 14.0083 17.6416C13.775 17.6416 13.5778 17.561 13.4168 17.3999L8.5833 12.5666C8.49446 12.4776 8.43196 12.3859 8.3958 12.2916C8.3598 12.1971 8.3418 12.0943 8.3418 11.9831C8.3418 11.8721 8.3598 11.7694 8.3958 11.6749C8.43196 11.5804 8.49446 11.4887 8.5833 11.3999L13.4333 6.54986C13.5945 6.38869 13.7917 6.30811 14.025 6.30811C14.2584 6.30811 14.4556 6.38869 14.6168 6.54986C14.7778 6.71102 14.8583 6.90827 14.8583 7.1416C14.8583 7.37494 14.7778 7.57211 14.6168 7.73311L10.3668 11.9831Z" fill="#3E0D0C"/>
</svg>
