<svg width="20" height="17" viewBox="0 0 20 17" fill="none" xmlns="http://www.w3.org/2000/svg">
<path d="M10 16.75C9.78336 16.75 9.57086 16.7125 9.36252 16.6375C9.15419 16.5625 8.95836 16.4417 8.77502 16.275L7.30002 14.925C5.48336 13.3083 3.87919 11.7292 2.48752 10.1875C1.09586 8.64583 0.400024 6.96667 0.400024 5.15C0.400024 3.683 0.898775 2.45792 1.89627 1.47475C2.89377 0.491583 4.13669 0 5.62502 0C6.47836 0 7.28336 0.179167 8.04002 0.5375C8.79669 0.895833 9.45002 1.40833 10 2.075C10.5834 1.40833 11.2472 0.895833 11.9915 0.5375C12.7359 0.179167 13.5277 0 14.367 0C15.8557 0 17.1 0.491583 18.1 1.47475C19.1 2.45792 19.6 3.683 19.6 5.15C19.6 6.96667 18.9042 8.64583 17.5125 10.1875C16.1209 11.7292 14.5167 13.3083 12.7 14.925L11.225 16.275C11.0417 16.4417 10.8459 16.5625 10.6375 16.6375C10.4292 16.7125 10.2167 16.75 10 16.75ZM9.15002 3.95C8.75002 3.26667 8.25002 2.7375 7.65002 2.3625C7.05002 1.9875 6.37502 1.8 5.62502 1.8C4.64652 1.8 3.83102 2.11667 3.17852 2.75C2.52619 3.38333 2.20002 4.18658 2.20002 5.15975C2.20002 6.00325 2.50002 6.89167 3.10002 7.825C3.70002 8.75833 4.41669 9.67083 5.25002 10.5625C6.08336 11.4542 6.94169 12.2833 7.82502 13.05C8.70836 13.8167 9.43336 14.45 10 14.95C10.5667 14.45 11.2917 13.8167 12.175 13.05C13.0584 12.2833 13.9167 11.4542 14.75 10.5625C15.5834 9.67083 16.3 8.75833 16.9 7.825C17.5 6.89167 17.8 6.00325 17.8 5.15975C17.8 4.18658 17.4739 3.38333 16.8215 2.75C16.169 2.11667 15.3535 1.8 14.375 1.8C13.625 1.8 12.9459 1.9875 12.3375 2.3625C11.7292 2.7375 11.225 3.26667 10.825 3.95C10.7417 4.11667 10.6246 4.2375 10.4738 4.3125C10.3229 4.3875 10.1646 4.425 9.99877 4.425C9.83294 4.425 9.67086 4.3875 9.51252 4.3125C9.35419 4.2375 9.23336 4.11667 9.15002 3.95Z" fill="#3E0D0C"/>
</svg>
