<svg width="437" height="195" viewBox="0 0 437 195" fill="none" xmlns="http://www.w3.org/2000/svg">
<mask id="path-1-inside-1_2379_9989" fill="white">
<path d="M437 63.832C437 80.4006 423.569 93.832 407 93.832H398.215C381.646 93.832 368.215 107.263 368.215 123.832V165C368.215 181.569 354.783 195 338.215 195H30C13.4315 195 0 181.569 0 165V30C0 13.4315 13.4315 0 30 0H407C423.569 0 437 13.4315 437 30V63.832Z"/>
</mask>
<path d="M437 63.832C437 80.4006 423.569 93.832 407 93.832H398.215C381.646 93.832 368.215 107.263 368.215 123.832V165C368.215 181.569 354.783 195 338.215 195H30C13.4315 195 0 181.569 0 165V30C0 13.4315 13.4315 0 30 0H407C423.569 0 437 13.4315 437 30V63.832Z" fill="url(#paint0_linear_2379_9989)"/>
<path d="M407 93.832V92.832H398.215V93.832V94.832H407V93.832ZM368.215 123.832H367.215V165H368.215H369.215V123.832H368.215ZM338.215 195V194H30V195V196H338.215V195ZM0 165H1V30H0H-1V165H0ZM30 0V1H407V0V-1H30V0ZM437 30H436V63.832H437H438V30H437ZM407 0V1C423.016 1 436 13.9837 436 30H437H438C438 12.8792 424.121 -1 407 -1V0ZM0 30H1C1 13.9837 13.9837 1 30 1V0V-1C12.8792 -1 -1 12.8792 -1 30H0ZM30 195V194C13.9837 194 1 181.016 1 165H0H-1C-1 182.121 12.8792 196 30 196V195ZM368.215 165H367.215C367.215 181.016 354.231 194 338.215 194V195V196C355.336 196 369.215 182.121 369.215 165H368.215ZM398.215 93.832V92.832C381.094 92.832 367.215 106.711 367.215 123.832H368.215H369.215C369.215 107.816 382.199 94.832 398.215 94.832V93.832ZM407 93.832V94.832C424.121 94.832 438 80.9529 438 63.832H437H436C436 79.8483 423.016 92.832 407 92.832V93.832Z" fill="#FCE6D8" mask="url(#path-1-inside-1_2379_9989)"/>
<defs>
<linearGradient id="paint0_linear_2379_9989" x1="209.936" y1="1.23941" x2="209.936" y2="196.239" gradientUnits="userSpaceOnUse">
<stop stop-color="white"/>
<stop offset="1" stop-color="#FEF4EE"/>
</linearGradient>
</defs>
</svg>
