<svg width="20" height="20" viewBox="0 0 20 20" fill="none" xmlns="http://www.w3.org/2000/svg">
<path d="M5.83073 5.83333H13.9557C15.7113 5.83333 16.5891 5.83333 17.2197 6.25466C17.4926 6.43706 17.727 6.67143 17.9094 6.94441C18.3307 7.57497 18.3307 8.45276 18.3307 10.2083C18.3307 13.1343 18.3307 14.5973 17.6285 15.6482C17.3245 16.1032 16.9339 16.4938 16.4789 16.7978C15.428 17.5 13.965 17.5 11.0391 17.5H9.9974C6.06903 17.5 4.10484 17.5 2.88445 16.2796C1.66406 15.0592 1.66406 13.095 1.66406 9.16667V6.62023C1.66406 5.1065 1.66406 4.34964 1.98099 3.78172C2.20691 3.37689 2.54095 3.04285 2.94578 2.81693C3.5137 2.5 4.27056 2.5 5.78429 2.5C6.75408 2.5 7.23898 2.5 7.66344 2.65917C8.63258 3.0226 9.03222 3.90298 9.46953 4.7776L9.9974 5.83333" stroke="#F3A37E" stroke-width="1.5" stroke-linecap="round"/>
</svg>
