<svg width="21" height="20" viewBox="0 0 21 20" fill="none" xmlns="http://www.w3.org/2000/svg">
<path d="M6.33073 5.83333H14.4557C16.2113 5.83333 17.0891 5.83333 17.7197 6.25466C17.9926 6.43706 18.227 6.67143 18.4094 6.94441C18.8307 7.57497 18.8307 8.45276 18.8307 10.2083C18.8307 13.1343 18.8307 14.5973 18.1285 15.6482C17.8245 16.1032 17.4339 16.4938 16.9789 16.7978C15.928 17.5 14.465 17.5 11.5391 17.5H10.4974C6.56903 17.5 4.60484 17.5 3.38445 16.2796C2.16406 15.0592 2.16406 13.095 2.16406 9.16667V6.62023C2.16406 5.1065 2.16406 4.34964 2.48099 3.78172C2.70691 3.37689 3.04095 3.04285 3.44578 2.81693C4.0137 2.5 4.77056 2.5 6.28429 2.5C7.25408 2.5 7.73898 2.5 8.16344 2.65917C9.13258 3.0226 9.53222 3.90298 9.96953 4.7776L10.4974 5.83333" stroke="#E74C21" stroke-width="1.5" stroke-linecap="round"/>
</svg>
