<svg width="29" height="29" viewBox="0 0 29 29" fill="none" xmlns="http://www.w3.org/2000/svg">
<path d="M7.03906 21.5143C7.1901 23.0499 7.53146 24.0835 8.30294 24.855C9.68669 26.2387 11.9138 26.2387 16.368 26.2387C20.8222 26.2387 23.0493 26.2387 24.4331 24.855C25.8168 23.4712 25.8168 21.2441 25.8168 16.7899C25.8168 12.3357 25.8168 10.1086 24.4331 8.72481C23.6616 7.95334 22.628 7.61198 21.0924 7.46094" stroke="#5D5D5D" stroke-width="1.76042"/>
<path d="M2.34375 12.1545C2.34375 7.72855 2.34375 5.51557 3.71872 4.1406C5.09369 2.76562 7.30667 2.76562 11.7326 2.76562C16.1586 2.76562 18.3716 2.76562 19.7466 4.1406C21.1215 5.51557 21.1215 7.72855 21.1215 12.1545C21.1215 16.5805 21.1215 18.7935 19.7466 20.1684C18.3716 21.5434 16.1586 21.5434 11.7326 21.5434C7.30667 21.5434 5.09369 21.5434 3.71872 20.1684C2.34375 18.7935 2.34375 16.5805 2.34375 12.1545Z" stroke="#5D5D5D" stroke-width="1.76042"/>
<path d="M2.34375 13.4672C3.07024 13.3749 3.80471 13.3293 4.54041 13.3309C7.65276 13.2733 10.6889 14.1219 13.107 15.7251C15.3497 17.212 16.9256 19.2584 17.6007 21.5434" stroke="#5D5D5D" stroke-width="1.76042" stroke-linejoin="round"/>
<path d="M15.2576 8.63281H15.2681" stroke="#5D5D5D" stroke-width="2.34722" stroke-linecap="round" stroke-linejoin="round"/>
</svg>
