<svg width="21" height="20" viewBox="0 0 21 20" fill="none" xmlns="http://www.w3.org/2000/svg">
<path d="M5.5 14.9787C5.60725 16.0691 5.84963 16.803 6.39743 17.3508C7.37997 18.3333 8.96135 18.3333 12.1241 18.3333C15.2869 18.3333 16.8682 18.3333 17.8508 17.3508C18.8333 16.3682 18.8333 14.7869 18.8333 11.6241C18.8333 8.46135 18.8333 6.87997 17.8508 5.89743C17.303 5.34963 16.5691 5.10725 15.4787 5" stroke="#D9391D" stroke-width="1.5"/>
<path d="M2.16406 8.33464C2.16406 5.19194 2.16406 3.62059 3.14037 2.64428C4.11668 1.66797 5.68803 1.66797 8.83073 1.66797C11.9734 1.66797 13.5448 1.66797 14.5211 2.64428C15.4974 3.62059 15.4974 5.19194 15.4974 8.33464C15.4974 11.4773 15.4974 13.0487 14.5211 14.025C13.5448 15.0013 11.9734 15.0013 8.83073 15.0013C5.68803 15.0013 4.11668 15.0013 3.14037 14.025C2.16406 13.0487 2.16406 11.4773 2.16406 8.33464Z" stroke="#D9391D" stroke-width="1.5"/>
<path d="M2.16406 9.26673C2.67991 9.20117 3.20143 9.16878 3.72382 9.16992C5.93377 9.12905 8.08959 9.73158 9.80662 10.87C11.3991 11.9258 12.518 13.3788 12.9974 15.0013" stroke="#D9391D" stroke-width="1.5" stroke-linejoin="round"/>
<path d="M11.3358 5.83203H11.3433" stroke="#D9391D" stroke-width="2" stroke-linecap="round" stroke-linejoin="round"/>
</svg>
