<svg width="29" height="29" viewBox="0 0 29 29" fill="none" xmlns="http://www.w3.org/2000/svg">
<path d="M2.9375 14.5009C2.9375 9.24503 2.9375 6.61712 4.57028 4.98434C6.20306 3.35156 8.83097 3.35156 14.0868 3.35156C19.3426 3.35156 21.9706 3.35156 23.6033 4.98434C25.2361 6.61712 25.2361 9.24503 25.2361 14.5009C25.2361 19.7567 25.2361 22.3846 23.6033 24.0174C21.9706 25.6502 19.3426 25.6502 14.0868 25.6502C8.83097 25.6502 6.20306 25.6502 4.57028 24.0174C2.9375 22.3846 2.9375 19.7567 2.9375 14.5009Z" stroke="#5D5D5D" stroke-width="1.76042"/>
<path d="M14.3689 20.3698V14.5017C14.3689 13.9485 14.3689 13.6719 14.1971 13.5C14.0252 13.3281 13.7486 13.3281 13.1953 13.3281" stroke="#5D5D5D" stroke-width="1.76042" stroke-linecap="round" stroke-linejoin="round"/>
<path d="M14.0779 9.80469H14.0884" stroke="#5D5D5D" stroke-width="2.34722" stroke-linecap="round" stroke-linejoin="round"/>
</svg>
