<svg width="29" height="29" viewBox="0 0 29 29" fill="none" xmlns="http://www.w3.org/2000/svg">
<path d="M20.5084 10.9921C20.5172 10.9921 20.5259 10.9921 20.5347 10.9921C23.4515 10.9921 25.816 13.3609 25.816 16.283C25.816 19.0064 23.7621 21.2492 21.1215 21.5417M20.5084 10.9921C20.5258 10.7985 20.5347 10.6024 20.5347 10.4042C20.5347 6.83274 17.6448 3.9375 14.0799 3.9375C10.7037 3.9375 7.93287 6.53432 7.64897 9.84301M20.5084 10.9921C20.3884 12.326 19.8641 13.543 19.0593 14.5194M7.64897 9.84301C4.67217 10.1268 2.34375 12.6386 2.34375 15.6951C2.34375 18.5393 4.35973 20.9117 7.03819 21.4564M7.64897 9.84301C7.83421 9.82535 8.02195 9.81632 8.21181 9.81632C9.53309 9.81632 10.7524 10.2538 11.7332 10.9921" stroke="#5D5D5D" stroke-width="1.76042" stroke-linecap="round" stroke-linejoin="round"/>
<path d="M14.0825 25.0625L14.0825 15.6736M14.0825 25.0625C13.2607 25.0625 11.7253 22.722 11.1484 22.1285M14.0825 25.0625C14.9043 25.0625 16.4396 22.722 17.0165 22.1285" stroke="#5D5D5D" stroke-width="1.76042" stroke-linecap="round" stroke-linejoin="round"/>
</svg>
