<svg width="21" height="20" viewBox="0 0 21 20" fill="none" xmlns="http://www.w3.org/2000/svg">
<path d="M8.11688 8.90915L8.28932 8.73671C9.93827 7.08776 12.6117 7.08776 14.2607 8.73671C15.9096 10.3857 15.9096 13.0591 14.2607 14.7081L11.8721 17.0966C10.2232 18.7456 7.54972 18.7456 5.90077 17.0966C4.25183 15.4477 4.25183 12.7742 5.90077 11.1253L6.28773 10.7383" stroke="#D9391D" stroke-width="1.5" stroke-linecap="round"/>
<path d="M14.7097 9.263L15.0966 8.87604C16.7456 7.2271 16.7456 4.55363 15.0966 2.90468C13.4477 1.25573 10.7742 1.25573 9.12526 2.90468L6.73671 5.29323C5.08776 6.94217 5.08776 9.61564 6.73671 11.2646C8.38566 12.9135 11.0591 12.9135 12.7081 11.2646L12.8805 11.0922" stroke="#D9391D" stroke-width="1.5" stroke-linecap="round"/>
</svg>
