<svg width="16" height="16" viewBox="0 0 16 16" fill="none" xmlns="http://www.w3.org/2000/svg">
<path d="M9.66927 5.9987C9.66927 6.91917 8.92308 7.66536 8.0026 7.66536C7.08213 7.66536 6.33594 6.91917 6.33594 5.9987C6.33594 5.07822 7.08213 4.33203 8.0026 4.33203C8.92308 4.33203 9.66927 5.07822 9.66927 5.9987Z" stroke="#E74C21"/>
<path d="M8.84087 11.6611C8.61602 11.8776 8.31548 11.9987 8.00271 11.9987C7.68993 11.9987 7.38939 11.8776 7.16454 11.6611C5.10547 9.66589 2.34606 7.43706 3.69174 4.20119C4.41934 2.45158 6.1659 1.33203 8.00271 1.33203C9.83951 1.33203 11.5861 2.45158 12.3137 4.20119C13.6577 7.43298 10.905 9.67276 8.84087 11.6611Z" stroke="#E74C21"/>
<path d="M12 13.332C12 14.0684 10.2091 14.6654 8 14.6654C5.79086 14.6654 4 14.0684 4 13.332" stroke="#E74C21" stroke-linecap="round"/>
</svg>
