<svg width="16" height="16" viewBox="0 0 16 16" fill="none" xmlns="http://www.w3.org/2000/svg">
<path d="M1.33594 8.0013C1.33594 5.64298 1.33594 4.46382 2.0378 3.67657C2.15006 3.55065 2.27379 3.4342 2.40757 3.32855C3.24403 2.66797 4.49689 2.66797 7.0026 2.66797H9.0026C11.5083 2.66797 12.7612 2.66797 13.5976 3.32855C13.7314 3.4342 13.8551 3.55065 13.9674 3.67657C14.6693 4.46382 14.6693 5.64298 14.6693 8.0013C14.6693 10.3596 14.6693 11.5388 13.9674 12.326C13.8551 12.452 13.7314 12.5684 13.5976 12.6741C12.7612 13.3346 11.5083 13.3346 9.0026 13.3346H7.0026C4.49689 13.3346 3.24403 13.3346 2.40757 12.6741C2.27379 12.5684 2.15006 12.452 2.0378 12.326C1.33594 11.5388 1.33594 10.3596 1.33594 8.0013Z" stroke="#E74C21" stroke-linecap="round" stroke-linejoin="round"/>
<path d="M9.70066 7.9987C9.70066 8.91917 8.95446 9.66536 8.03399 9.66536C7.11352 9.66536 6.36732 8.91917 6.36732 7.9987C6.36732 7.07822 7.11352 6.33203 8.03399 6.33203C8.95446 6.33203 9.70066 7.07822 9.70066 7.9987Z" stroke="#E74C21"/>
<path d="M3.33594 8L4.0026 8" stroke="#E74C21" stroke-linecap="round"/>
<path d="M12 8L12.6667 8" stroke="#E74C21" stroke-linecap="round"/>
</svg>
